<?xml version="1.0" encoding="utf-8"?>
<!-- Generator: Adobe Illustrator 17.0.0, SVG Export Plug-In . SVG Version: 6.00 Build 0)  -->
<!DOCTYPE svg PUBLIC "-//W3C//DTD SVG 1.1//EN" "http://www.w3.org/Graphics/SVG/1.1/DTD/svg11.dtd">
<svg version="1.1" id="Layer_1" xmlns="http://www.w3.org/2000/svg" xmlns:xlink="http://www.w3.org/1999/xlink" x="0px" y="0px"
	 width="119.145px" height="47.361px" viewBox="0 0 119.145 47.361" enable-background="new 0 0 119.145 47.361"
	 xml:space="preserve">
<path fill="#FFFFFF" d="M45.758,40.322c-0.54,1.151-1.174,2.031-1.902,2.641c-0.728,0.611-1.421,1.056-2.078,1.338
	c-0.775,0.329-1.562,0.516-2.36,0.563c-1.056,0-1.919-0.164-2.588-0.493c-0.669-0.329-1.203-0.763-1.602-1.303
	c-0.399-0.54-0.675-1.15-0.828-1.831c-0.153-0.681-0.229-1.373-0.229-2.078V24.404c0-0.375-0.07-0.71-0.211-1.004
	c-0.141-0.293-0.329-0.463-0.563-0.511c-0.235-0.047-0.517,0.07-0.845,0.352c-0.329,0.282-0.681,0.787-1.056,1.514
	c-0.634,1.878-1.209,3.851-1.726,5.916c-0.446,1.784-0.851,3.798-1.215,6.04c-0.364,2.242-0.569,4.549-0.616,6.92l-6.48,2.254
	V24.404c0-0.375-0.07-0.71-0.211-1.004c-0.141-0.293-0.335-0.463-0.581-0.511c-0.247-0.047-0.534,0.07-0.863,0.352
	c-0.329,0.282-0.669,0.787-1.021,1.514c-0.704,1.972-1.315,4.027-1.831,6.163c-0.235,0.916-0.458,1.89-0.669,2.923
	c-0.211,1.033-0.393,2.095-0.546,3.187c-0.153,1.092-0.276,2.195-0.37,3.31c-0.094,1.115-0.129,2.213-0.106,3.293l-6.409,2.254
	V22.221c0-0.563-0.129-1.009-0.387-1.338c-0.258-0.329-0.593-0.499-1.004-0.511c-0.411-0.012-0.863,0.135-1.356,0.44
	c-0.493,0.305-0.974,0.798-1.444,1.479L3.71,21.235c0.54-1.127,1.168-2.001,1.884-2.624c0.716-0.622,1.414-1.074,2.095-1.356
	c0.775-0.329,1.573-0.516,2.395-0.563c1.033,0,1.884,0.164,2.553,0.493c0.669,0.329,1.197,0.757,1.585,1.285
	c0.387,0.528,0.657,1.133,0.81,1.814c0.152,0.681,0.229,1.373,0.229,2.078v7.431c0.423-2.113,1.056-3.979,1.902-5.599
	c0.845-1.62,1.731-2.987,2.659-4.103c0.927-1.115,1.837-1.96,2.729-2.536c0.892-0.575,1.608-0.863,2.148-0.863
	c0.681,0,1.233,0.112,1.655,0.335c0.423,0.223,0.751,0.558,0.986,1.004c0.235,0.446,0.393,0.992,0.475,1.638
	c0.082,0.646,0.123,1.403,0.123,2.271v7.853c0.446-2.113,1.086-3.979,1.919-5.599c0.833-1.62,1.72-2.987,2.659-4.103
	c0.939-1.115,1.855-1.96,2.747-2.536c0.892-0.575,1.608-0.863,2.148-0.863c1.338,0,2.213,0.44,2.624,1.321
	c0.411,0.88,0.616,2.189,0.616,3.927v17.397c0,0.563,0.129,1.01,0.387,1.338c0.258,0.329,0.587,0.499,0.986,0.511
	c0.399,0.012,0.839-0.135,1.321-0.44c0.481-0.305,0.956-0.798,1.426-1.479L45.758,40.322z"/>
<path fill="#FFFFFF" d="M72.864,39.562c-0.26,0.564-0.585,1.095-0.975,1.593c-0.39,0.499-0.84,0.943-1.349,1.333
	c-0.509,0.39-1.062,0.699-1.658,0.927c-0.596,0.228-1.219,0.341-1.869,0.341c-1.712,0-2.942-0.471-3.69-1.414
	c-0.748-0.943-1.122-2.227-1.122-3.852v-0.585c-0.39,0.737-0.829,1.474-1.317,2.211c-0.488,0.737-1.04,1.398-1.658,1.983
	s-1.306,1.062-2.064,1.43c-0.759,0.368-1.604,0.553-2.536,0.553c-1.409,0-2.655-0.271-3.739-0.813
	c-1.084-0.542-1.994-1.273-2.731-2.194c-0.737-0.921-1.29-1.999-1.658-3.235c-0.369-1.235-0.553-2.546-0.553-3.934
	c0-1.886,0.33-3.766,0.992-5.64c0.661-1.874,1.593-3.549,2.796-5.023c1.203-1.474,2.644-2.671,4.324-3.592
	c1.679-0.921,3.549-1.382,5.608-1.382c0.823,0,1.647,0.076,2.471,0.228c0.823,0.152,1.609,0.396,2.357,0.731
	c0.748,0.336,1.43,0.775,2.048,1.317c0.618,0.542,1.122,1.203,1.512,1.983l-4.844,2.048c-0.26-0.412-0.558-0.807-0.894-1.187
	c-0.336-0.379-0.704-0.71-1.105-0.992c-0.401-0.282-0.829-0.509-1.284-0.683c-0.455-0.173-0.932-0.26-1.43-0.26
	c-1.127,0-2.129,0.347-3.007,1.04c-0.878,0.694-1.625,1.55-2.243,2.568c-0.618,1.019-1.089,2.102-1.414,3.251
	c-0.325,1.149-0.488,2.189-0.488,3.121c0,0.824,0.081,1.75,0.244,2.78c0.163,1.03,0.45,1.999,0.861,2.91
	c0.412,0.91,0.953,1.68,1.625,2.308c0.672,0.629,1.517,0.943,2.536,0.943c0.802,0,1.495-0.179,2.081-0.536s1.084-0.823,1.495-1.398
	c0.412-0.574,0.753-1.235,1.024-1.983c0.271-0.748,0.477-1.512,0.618-2.292c0.141-0.78,0.238-1.555,0.293-2.324
	c0.054-0.769,0.081-1.457,0.081-2.064v-2.243l5.917-2.081v13.199c0,0.434,0.108,0.829,0.325,1.187
	c0.217,0.358,0.553,0.536,1.008,0.536c0.542,0,1.035-0.2,1.479-0.601c0.444-0.401,0.796-0.807,1.057-1.219L72.864,39.562z
	 M53.294,10.564c0.412,0,0.802,0.081,1.17,0.244c0.368,0.163,0.693,0.385,0.975,0.666c0.282,0.282,0.504,0.612,0.666,0.992
	c0.163,0.379,0.244,0.775,0.244,1.187c0,0.412-0.081,0.802-0.244,1.17c-0.163,0.369-0.385,0.694-0.666,0.975
	c-0.282,0.282-0.607,0.504-0.975,0.666c-0.369,0.163-0.759,0.244-1.17,0.244c-0.434,0-0.835-0.081-1.203-0.244
	c-0.369-0.163-0.694-0.385-0.975-0.666c-0.282-0.282-0.499-0.607-0.65-0.975c-0.152-0.368-0.228-0.758-0.228-1.17
	c0-0.412,0.076-0.807,0.228-1.187c0.151-0.379,0.368-0.71,0.65-0.992c0.282-0.282,0.607-0.504,0.975-0.666
	C52.46,10.646,52.86,10.564,53.294,10.564z M62.949,10.564c0.412,0,0.802,0.081,1.17,0.244c0.368,0.163,0.688,0.385,0.959,0.666
	c0.271,0.282,0.482,0.612,0.634,0.992c0.151,0.379,0.228,0.775,0.228,1.187c0,0.412-0.076,0.802-0.228,1.17
	c-0.152,0.369-0.363,0.694-0.634,0.975c-0.271,0.282-0.591,0.504-0.959,0.666c-0.369,0.163-0.759,0.244-1.17,0.244
	c-0.434,0-0.835-0.081-1.203-0.244c-0.369-0.163-0.694-0.385-0.975-0.666c-0.282-0.282-0.499-0.607-0.65-0.975
	c-0.152-0.368-0.228-0.758-0.228-1.17c0-0.412,0.076-0.807,0.228-1.187c0.151-0.379,0.368-0.71,0.65-0.992
	c0.282-0.282,0.607-0.504,0.975-0.666C62.115,10.646,62.516,10.564,62.949,10.564z"/>
<path fill="#FFFFFF" d="M86.309,39.627c-0.499,1.062-1.073,1.875-1.723,2.438c-0.65,0.564-1.29,0.975-1.918,1.235
	c-0.715,0.303-1.452,0.477-2.211,0.52c-0.975,0-1.772-0.152-2.389-0.455c-0.618-0.303-1.105-0.704-1.463-1.203
	c-0.358-0.498-0.607-1.062-0.748-1.69c-0.141-0.628-0.211-1.268-0.211-1.918V21.52H72.2l1.398-3.251h2.048V6.761l5.949-2.081v13.589
	h6.177l-1.333,3.251h-4.844v17.197c0,0.52,0.119,0.932,0.358,1.235c0.238,0.304,0.542,0.461,0.91,0.471
	c0.368,0.011,0.78-0.125,1.235-0.406c0.455-0.282,0.899-0.737,1.333-1.365L86.309,39.627z"/>
<path fill="#FFFFFF" d="M103.101,39.627c-0.499,1.062-1.073,1.875-1.723,2.438c-0.65,0.564-1.29,0.975-1.918,1.235
	c-0.715,0.303-1.452,0.477-2.211,0.52c-0.975,0-1.772-0.152-2.389-0.455c-0.618-0.303-1.105-0.704-1.463-1.203
	c-0.358-0.498-0.607-1.062-0.748-1.69c-0.141-0.628-0.211-1.268-0.211-1.918V21.52h-3.446l1.398-3.251h2.048V6.761l5.949-2.081
	v13.589h6.177l-1.333,3.251h-4.844v17.197c0,0.52,0.119,0.932,0.358,1.235c0.238,0.304,0.542,0.461,0.91,0.471
	c0.368,0.011,0.78-0.125,1.235-0.406c0.455-0.282,0.899-0.737,1.333-1.365L103.101,39.627z"/>
<path fill="#FFFFFF" d="M115.435,1.475l-2.399,32.798l-3.131,0.761L107.448,3.64L115.435,1.475z M114.821,41.207
	c0,0.468-0.088,0.907-0.263,1.317c-0.176,0.41-0.414,0.766-0.717,1.068c-0.303,0.302-0.654,0.541-1.053,0.717
	c-0.4,0.176-0.834,0.263-1.302,0.263s-0.912-0.088-1.331-0.263c-0.42-0.176-0.78-0.414-1.083-0.717
	c-0.303-0.302-0.546-0.658-0.731-1.068c-0.186-0.41-0.278-0.848-0.278-1.317c0-0.468,0.092-0.907,0.278-1.317
	c0.185-0.41,0.429-0.77,0.731-1.083c0.302-0.312,0.663-0.56,1.083-0.746c0.419-0.185,0.863-0.278,1.331-0.278
	s0.902,0.093,1.302,0.278c0.4,0.186,0.751,0.434,1.053,0.746c0.302,0.312,0.541,0.673,0.717,1.083
	C114.733,40.3,114.821,40.739,114.821,41.207z"/>
</svg>
