<?xml version="1.0" encoding="utf-8"?>
<!-- Generator: Adobe Illustrator 17.0.0, SVG Export Plug-In . SVG Version: 6.00 Build 0)  -->
<!DOCTYPE svg PUBLIC "-//W3C//DTD SVG 1.1//EN" "http://www.w3.org/Graphics/SVG/1.1/DTD/svg11.dtd">
<svg version="1.1" id="Layer_1" xmlns="http://www.w3.org/2000/svg" xmlns:xlink="http://www.w3.org/1999/xlink" x="0px" y="0px"
	 width="30px" height="30px" viewBox="0 0 30 30" enable-background="new 0 0 30 30" xml:space="preserve">
<path fill="none" stroke="#000000" stroke-width="2" stroke-linecap="round" stroke-miterlimit="10" d="M163.259,96.844
	c0,9.212,14.909,16.667,33.333,16.667"/>
<path fill="none" stroke="#000000" stroke-width="2" stroke-linecap="round" stroke-miterlimit="10" d="M229.926,96.844
	c0,9.212-14.909,16.667-33.333,16.667"/>
<g>
	<path fill="#FFFFFF" d="M15.273,29.396c-7.945,0-14.409-6.464-14.409-14.409c0-7.946,6.464-14.409,14.409-14.409
		s14.409,6.464,14.409,14.409C29.683,22.932,23.219,29.396,15.273,29.396z M15.273,1.881c-7.227,0-13.106,5.879-13.106,13.106
		c0,7.227,5.879,13.106,13.106,13.106s13.106-5.879,13.106-13.106C28.379,7.76,22.5,1.881,15.273,1.881z"/>
</g>
<g>
	<path fill="#FFFFFF" d="M13.245,7.541c0-0.454,0.164-0.844,0.492-1.172c0.328-0.328,0.718-0.492,1.172-0.492
		c0.454,0,0.844,0.164,1.172,0.492c0.328,0.328,0.491,0.718,0.491,1.172s-0.164,0.844-0.491,1.172
		c-0.328,0.328-0.718,0.491-1.172,0.491c-0.454,0-0.844-0.164-1.172-0.491C13.409,8.385,13.245,7.995,13.245,7.541z M13.775,11.825
		h2.268v11.944h-2.268V11.825z"/>
</g>
</svg>
