<?xml version="1.0" encoding="utf-8"?>
<!-- Generator: Adobe Illustrator 17.0.0, SVG Export Plug-In . SVG Version: 6.00 Build 0)  -->
<!DOCTYPE svg PUBLIC "-//W3C//DTD SVG 1.1//EN" "http://www.w3.org/Graphics/SVG/1.1/DTD/svg11.dtd">
<svg version="1.1" id="Layer_1" xmlns="http://www.w3.org/2000/svg" xmlns:xlink="http://www.w3.org/1999/xlink" x="0px" y="0px"
	 width="26.092px" height="26.092px" viewBox="0 0 26.092 26.092" enable-background="new 0 0 26.092 26.092" xml:space="preserve">
<g>
	<circle fill="#B0C536" cx="13.046" cy="13.246" r="11.973"/>
	<path fill="#B0C536" d="M13.046,25.786c-6.915,0-12.54-5.625-12.54-12.54c0-6.915,5.625-12.54,12.54-12.54s12.54,5.625,12.54,12.54
		C25.586,20.161,19.961,25.786,13.046,25.786z M13.046,1.841C6.757,1.841,1.64,6.957,1.64,13.247
		c0,6.289,5.117,11.406,11.406,11.406s11.406-5.117,11.406-11.406C24.452,6.957,19.335,1.841,13.046,1.841z"/>
</g>
<path fill="none" stroke="#000000" stroke-width="2" stroke-linecap="round" stroke-miterlimit="10" d="M161.305,94.89
	c0,9.212,14.909,16.667,33.333,16.667"/>
<path fill="none" stroke="#000000" stroke-width="2" stroke-linecap="round" stroke-miterlimit="10" d="M227.972,94.89
	c0,9.212-14.909,16.667-33.333,16.667"/>
</svg>
