<?xml version="1.0" encoding="utf-8"?>
<!-- Generator: Adobe Illustrator 17.0.0, SVG Export Plug-In . SVG Version: 6.00 Build 0)  -->
<!DOCTYPE svg PUBLIC "-//W3C//DTD SVG 1.1//EN" "http://www.w3.org/Graphics/SVG/1.1/DTD/svg11.dtd">
<svg version="1.1" id="Layer_1" xmlns="http://www.w3.org/2000/svg" xmlns:xlink="http://www.w3.org/1999/xlink" x="0px" y="0px"
	 width="26.092px" height="26.092px" viewBox="0 0 26.092 26.092" enable-background="new 0 0 26.092 26.092" xml:space="preserve">
<g>
	<g>
		<path fill="#434345" d="M13.046,25.668c-6.958,0-12.618-5.661-12.618-12.618c0-6.958,5.661-12.618,12.618-12.618
			S25.664,6.092,25.664,13.05C25.664,20.008,20.004,25.668,13.046,25.668z M13.046,1.573c-6.328,0-11.477,5.149-11.477,11.477
			c0,6.328,5.149,11.477,11.477,11.477s11.477-5.149,11.477-11.477C24.523,6.721,19.374,1.573,13.046,1.573z"/>
	</g>
</g>
<path fill="none" stroke="#000000" stroke-width="2" stroke-linecap="round" stroke-miterlimit="10" d="M161.305,94.89
	c0,9.212,14.909,16.667,33.333,16.667"/>
<path fill="none" stroke="#000000" stroke-width="2" stroke-linecap="round" stroke-miterlimit="10" d="M227.972,94.89
	c0,9.212-14.909,16.667-33.333,16.667"/>
<g>
	<g>
		<path fill="#434345" d="M13.69,16.774h-1.625V14.9c0-0.406,0.094-0.779,0.282-1.117c0.188-0.339,0.418-0.655,0.688-0.948
			c0.271-0.294,0.564-0.576,0.88-0.847c0.316-0.271,0.606-0.56,0.869-0.869c0.263-0.308,0.485-0.635,0.666-0.982
			c0.181-0.346,0.271-0.745,0.271-1.196c0-0.767-0.245-1.392-0.734-1.874c-0.489-0.481-1.125-0.722-1.907-0.722
			c-0.767,0-1.403,0.226-1.907,0.677c-0.504,0.451-0.824,1.046-0.959,1.783L8.52,8.603c0.09-0.587,0.267-1.114,0.53-1.58
			c0.263-0.466,0.594-0.861,0.993-1.185c0.399-0.323,0.854-0.568,1.366-0.734c0.511-0.165,1.061-0.248,1.648-0.248
			c0.602,0,1.166,0.087,1.693,0.26c0.527,0.173,0.982,0.425,1.366,0.756c0.384,0.331,0.685,0.745,0.903,1.241
			c0.218,0.497,0.327,1.061,0.327,1.693s-0.09,1.166-0.271,1.603c-0.181,0.437-0.406,0.817-0.677,1.14
			c-0.271,0.324-0.564,0.613-0.88,0.869c-0.316,0.256-0.609,0.531-0.88,0.824c-0.271,0.293-0.497,0.628-0.677,1.005
			c-0.181,0.376-0.271,0.835-0.271,1.377V16.774z M14.231,20.024c0,0.316-0.113,0.598-0.339,0.847
			c-0.226,0.248-0.519,0.372-0.88,0.372c-0.361,0-0.655-0.124-0.88-0.372c-0.226-0.248-0.338-0.531-0.338-0.847
			s0.113-0.598,0.338-0.846c0.226-0.248,0.519-0.372,0.88-0.372c0.361,0,0.655,0.124,0.88,0.372
			C14.118,19.426,14.231,19.708,14.231,20.024z"/>
		<path fill="#434345" d="M13.012,21.438c-0.417,0-0.761-0.147-1.024-0.436c-0.258-0.284-0.389-0.613-0.389-0.978
			c0-0.364,0.131-0.693,0.389-0.977c0.263-0.289,0.608-0.436,1.024-0.436c0.417,0,0.761,0.147,1.024,0.436
			c0.258,0.284,0.389,0.613,0.389,0.977c0,0.364-0.131,0.693-0.389,0.978C13.774,21.291,13.429,21.438,13.012,21.438z M13.012,19
			c-0.307,0-0.547,0.101-0.736,0.309c-0.194,0.213-0.288,0.447-0.288,0.715c0,0.269,0.094,0.503,0.288,0.716
			c0.189,0.208,0.43,0.309,0.736,0.309c0.307,0,0.547-0.101,0.736-0.309c0.194-0.213,0.288-0.447,0.288-0.716
			c0-0.268-0.094-0.502-0.288-0.715C13.56,19.101,13.319,19,13.012,19z M13.884,16.968H11.87V14.9c0-0.438,0.103-0.846,0.307-1.212
			c0.194-0.35,0.435-0.682,0.716-0.986c0.274-0.297,0.575-0.587,0.896-0.862c0.307-0.263,0.592-0.548,0.848-0.848
			c0.253-0.296,0.469-0.614,0.642-0.946c0.165-0.316,0.249-0.688,0.249-1.106c0-0.719-0.221-1.287-0.676-1.735
			C14.395,6.758,13.816,6.54,13.08,6.54c-0.715,0-1.313,0.211-1.778,0.628c-0.469,0.42-0.771,0.983-0.898,1.673l-0.033,0.18
			L8.298,8.772l0.031-0.199c0.093-0.608,0.28-1.161,0.553-1.646c0.274-0.486,0.624-0.903,1.04-1.241
			c0.415-0.337,0.896-0.595,1.428-0.768c1.07-0.347,2.385-0.342,3.461,0.012c0.549,0.18,1.03,0.447,1.432,0.794
			c0.404,0.349,0.725,0.79,0.954,1.311c0.228,0.52,0.344,1.116,0.344,1.771c0,0.655-0.096,1.219-0.286,1.677
			c-0.187,0.453-0.425,0.853-0.708,1.191c-0.277,0.332-0.583,0.633-0.907,0.895c-0.308,0.25-0.597,0.52-0.86,0.805
			c-0.256,0.278-0.473,0.6-0.645,0.957c-0.167,0.348-0.252,0.783-0.252,1.293V16.968z M12.259,16.579h1.236v-0.957
			c0-0.568,0.098-1.06,0.29-1.461c0.188-0.392,0.427-0.746,0.71-1.052c0.275-0.298,0.578-0.582,0.901-0.843
			c0.305-0.247,0.592-0.53,0.853-0.843c0.257-0.307,0.475-0.673,0.647-1.089c0.17-0.41,0.256-0.925,0.256-1.528
			c0-0.602-0.105-1.145-0.311-1.615c-0.205-0.467-0.492-0.862-0.852-1.173c-0.363-0.313-0.8-0.554-1.299-0.719
			c-0.998-0.328-2.228-0.332-3.22-0.011c-0.487,0.158-0.925,0.393-1.303,0.7C9.789,6.295,9.47,6.675,9.22,7.118
			C9,7.509,8.841,7.951,8.747,8.434l1.312,0.157c0.16-0.697,0.491-1.273,0.984-1.714c0.538-0.482,1.224-0.727,2.037-0.727
			c0.831,0,1.519,0.262,2.044,0.778c0.525,0.518,0.792,1.195,0.792,2.012c0,0.481-0.099,0.914-0.293,1.287
			c-0.186,0.357-0.419,0.7-0.691,1.018c-0.269,0.315-0.568,0.614-0.891,0.891c-0.31,0.265-0.6,0.545-0.864,0.831
			c-0.26,0.281-0.482,0.587-0.662,0.911c-0.171,0.307-0.258,0.651-0.258,1.023V16.579z"/>
	</g>
</g>
</svg>
