<?xml version="1.0" encoding="utf-8"?>
<!-- Generator: Adobe Illustrator 17.0.0, SVG Export Plug-In . SVG Version: 6.00 Build 0)  -->
<!DOCTYPE svg PUBLIC "-//W3C//DTD SVG 1.1//EN" "http://www.w3.org/Graphics/SVG/1.1/DTD/svg11.dtd">
<svg version="1.1" id="Layer_1" xmlns="http://www.w3.org/2000/svg" xmlns:xlink="http://www.w3.org/1999/xlink" x="0px" y="0px"
	 width="26.092px" height="26.092px" viewBox="0 0 26.092 26.092" enable-background="new 0 0 26.092 26.092" xml:space="preserve">
<g>
	<circle fill="#E16562" cx="7.608" cy="12.104" r="1.358"/>
	<path fill="#E16562" d="M7.608,13.651c-0.853,0-1.547-0.694-1.547-1.547c0-0.853,0.694-1.547,1.547-1.547s1.547,0.694,1.547,1.547
		C9.155,12.957,8.461,13.651,7.608,13.651z M7.608,10.935c-0.645,0-1.169,0.525-1.169,1.169c0,0.645,0.525,1.169,1.169,1.169
		s1.169-0.525,1.169-1.169C8.777,11.459,8.252,10.935,7.608,10.935z"/>
</g>
<g>
	<circle fill="#E16562" cx="18.535" cy="12.104" r="1.358"/>
	<path fill="#E16562" d="M18.535,13.651c-0.853,0-1.547-0.694-1.547-1.547c0-0.853,0.694-1.547,1.547-1.547
		c0.853,0,1.547,0.694,1.547,1.547C20.082,12.957,19.388,13.651,18.535,13.651z M18.535,10.935c-0.645,0-1.169,0.525-1.169,1.169
		c0,0.645,0.525,1.169,1.169,1.169c0.645,0,1.169-0.525,1.169-1.169C19.704,11.459,19.179,10.935,18.535,10.935z"/>
</g>
<g>
	<path fill="#E16562" d="M13.046,25.582c-6.913,0-12.536-5.624-12.536-12.536C0.51,6.133,6.133,0.51,13.046,0.51
		s12.536,5.624,12.536,12.536C25.582,19.959,19.959,25.582,13.046,25.582z M13.046,1.644c-6.287,0-11.402,5.115-11.402,11.403
		c0,6.287,5.115,11.402,11.402,11.402s11.402-5.115,11.402-11.402C24.448,6.759,19.333,1.644,13.046,1.644z"/>
</g>
<path fill="none" stroke="#000000" stroke-width="2" stroke-linecap="round" stroke-miterlimit="10" d="M161.305,94.89
	c0,9.212,14.909,16.667,33.333,16.667"/>
<path fill="none" stroke="#000000" stroke-width="2" stroke-linecap="round" stroke-miterlimit="10" d="M227.972,94.89
	c0,9.212-14.909,16.667-33.333,16.667"/>
<g>
	<g>
		<path fill="#E16562" d="M18.853,17.175c0.118,0.115,0.028,0.398-0.215,0.609c-3.198,2.793-7.987,2.793-11.185,0
			c-0.243-0.211-0.333-0.495-0.215-0.609l0,0c0.118-0.115,0.385-0.035,0.607,0.159c2.974,2.597,7.426,2.597,10.4,0
			C18.469,17.14,18.735,17.059,18.853,17.175L18.853,17.175z"/>
	</g>
	<g>
		<path fill="#E16562" d="M13.046,20.068c-2.105,0-4.136-0.761-5.717-2.142c-0.199-0.173-0.325-0.403-0.331-0.599
			c-0.003-0.115,0.035-0.217,0.109-0.288c0.187-0.181,0.557-0.115,0.863,0.152c1.404,1.226,3.206,1.901,5.076,1.901
			s3.672-0.675,5.076-1.901c0.307-0.267,0.677-0.334,0.864-0.152c0.073,0.071,0.112,0.173,0.109,0.288
			c-0.005,0.196-0.132,0.426-0.331,0.599C17.182,19.307,15.151,20.068,13.046,20.068z M7.389,17.31
			c-0.024,0.027,0.018,0.182,0.189,0.331c1.512,1.321,3.454,2.048,5.468,2.048s3.956-0.728,5.468-2.048
			c0.171-0.149,0.213-0.305,0.2-0.342c-0.082,0.01-0.213,0.061-0.344,0.176c-1.473,1.286-3.363,1.994-5.324,1.994
			s-3.852-0.708-5.324-1.994C7.59,17.361,7.46,17.31,7.389,17.31z"/>
	</g>
</g>
</svg>
