<?xml version="1.0" encoding="utf-8"?>
<!-- Generator: Adobe Illustrator 17.0.0, SVG Export Plug-In . SVG Version: 6.00 Build 0)  -->
<!DOCTYPE svg PUBLIC "-//W3C//DTD SVG 1.1//EN" "http://www.w3.org/Graphics/SVG/1.1/DTD/svg11.dtd">
<svg version="1.1" id="Layer_1" xmlns="http://www.w3.org/2000/svg" xmlns:xlink="http://www.w3.org/1999/xlink" x="0px" y="0px"
	 width="26.092px" height="26.092px" viewBox="0 0 26.092 26.092" enable-background="new 0 0 26.092 26.092" xml:space="preserve">
<g>
	<circle fill="#E16562" cx="7.55" cy="12.19" r="1.373"/>
	<path fill="#E16562" d="M7.55,13.754c-0.862,0-1.564-0.701-1.564-1.564c0-0.862,0.701-1.563,1.564-1.563s1.564,0.701,1.564,1.563
		C9.114,13.052,8.412,13.754,7.55,13.754z M7.55,11.008c-0.652,0-1.182,0.53-1.182,1.182c0,0.652,0.53,1.182,1.182,1.182
		s1.182-0.53,1.182-1.182C8.732,11.539,8.202,11.008,7.55,11.008z"/>
</g>
<g>
	<circle fill="#E16562" cx="18.449" cy="12.19" r="1.373"/>
	<path fill="#E16562" d="M18.449,13.754c-0.862,0-1.564-0.701-1.564-1.564c0-0.862,0.701-1.563,1.564-1.563
		c0.862,0,1.563,0.701,1.563,1.563C20.013,13.052,19.311,13.754,18.449,13.754z M18.449,11.008c-0.652,0-1.182,0.53-1.182,1.182
		c0,0.652,0.53,1.182,1.182,1.182c0.651,0,1.182-0.53,1.182-1.182C19.631,11.539,19.101,11.008,18.449,11.008z"/>
</g>
<g>
	<path fill="#E16562" d="M13.046,25.811c-6.985,0-12.668-5.683-12.668-12.668c0-6.986,5.683-12.669,12.668-12.669
		s12.668,5.683,12.668,12.669C25.714,20.128,20.031,25.811,13.046,25.811z M13.046,1.62c-6.353,0-11.523,5.169-11.523,11.523
		c0,6.353,5.169,11.523,11.523,11.523s11.523-5.169,11.523-11.523C24.569,6.789,19.399,1.62,13.046,1.62z"/>
</g>
<path fill="none" stroke="#000000" stroke-width="2" stroke-linecap="round" stroke-miterlimit="10" d="M161.305,94.89
	c0,9.212,14.909,16.667,33.333,16.667"/>
<path fill="none" stroke="#000000" stroke-width="2" stroke-linecap="round" stroke-miterlimit="10" d="M227.972,94.89
	c0,9.212-14.909,16.667-33.333,16.667"/>
<g>
	<g>
		<path fill="#E16562" d="M18.907,19.504c-0.122,0.114-0.39,0.028-0.612-0.171c-2.958-2.67-7.512-2.779-10.636-0.138
			c-0.233,0.197-0.508,0.278-0.625,0.159l0,0c-0.117-0.119-0.016-0.409,0.238-0.623c3.354-2.834,8.247-2.718,11.429,0.156
			C18.944,19.105,19.029,19.391,18.907,19.504L18.907,19.504z"/>
	</g>
	<g>
		<path fill="#E16562" d="M18.76,19.746c-0.182,0-0.404-0.101-0.593-0.271c-1.438-1.298-3.306-2.013-5.261-2.013
			c-1.871,0-3.691,0.667-5.124,1.879c-0.321,0.272-0.699,0.336-0.884,0.147c-0.072-0.073-0.108-0.174-0.102-0.291
			c0.009-0.201,0.145-0.435,0.354-0.612c1.61-1.36,3.654-2.109,5.757-2.109c2.2,0,4.304,0.806,5.923,2.269
			c0.201,0.181,0.322,0.409,0.324,0.61c0.001,0.116-0.04,0.219-0.116,0.289C18.966,19.711,18.87,19.746,18.76,19.746z M12.907,17.08
			c2.049,0,4.008,0.75,5.516,2.111c0.133,0.119,0.265,0.173,0.337,0.173c0.015,0,0.021-0.002,0.021-0.002
			c0.002-0.024-0.038-0.181-0.207-0.333c-1.549-1.4-3.562-2.17-5.668-2.17c-2.013,0-3.969,0.717-5.51,2.019
			c-0.182,0.154-0.229,0.316-0.218,0.355c0.083-0.013,0.219-0.065,0.358-0.182C9.038,17.78,10.945,17.08,12.907,17.08z"/>
	</g>
</g>
</svg>
