<?xml version="1.0" encoding="utf-8"?>
<!-- Generator: Adobe Illustrator 17.0.0, SVG Export Plug-In . SVG Version: 6.00 Build 0)  -->
<!DOCTYPE svg PUBLIC "-//W3C//DTD SVG 1.1//EN" "http://www.w3.org/Graphics/SVG/1.1/DTD/svg11.dtd">
<svg version="1.1" id="Layer_1" xmlns="http://www.w3.org/2000/svg" xmlns:xlink="http://www.w3.org/1999/xlink" x="0px" y="0px"
	 width="26.092px" height="26.092px" viewBox="0 0 26.092 26.092" enable-background="new 0 0 26.092 26.092" xml:space="preserve">
<g>
	<circle fill="#E16562" cx="7.736" cy="12.126" r="1.326"/>
	<path fill="#E16562" d="M7.736,13.637c-0.833,0-1.511-0.678-1.511-1.511c0-0.833,0.678-1.511,1.511-1.511s1.511,0.678,1.511,1.511
		C9.247,12.959,8.569,13.637,7.736,13.637z M7.736,10.984c-0.63,0-1.142,0.512-1.142,1.142c0,0.63,0.512,1.142,1.142,1.142
		s1.142-0.512,1.142-1.142C8.878,11.497,8.366,10.984,7.736,10.984z"/>
</g>
<g>
	<circle fill="#E16562" cx="18.405" cy="12.126" r="1.326"/>
	<path fill="#E16562" d="M18.405,13.637c-0.833,0-1.511-0.678-1.511-1.511c0-0.833,0.678-1.511,1.511-1.511
		c0.833,0,1.511,0.678,1.511,1.511C19.915,12.959,19.238,13.637,18.405,13.637z M18.405,10.984c-0.63,0-1.142,0.512-1.142,1.142
		c0,0.63,0.512,1.142,1.142,1.142c0.629,0,1.142-0.512,1.142-1.142C19.546,11.497,19.034,10.984,18.405,10.984z"/>
</g>
<g>
	<path fill="#E16562" d="M13.046,25.286c-6.749,0-12.24-5.491-12.24-12.24c0-6.749,5.491-12.24,12.24-12.24s12.24,5.491,12.24,12.24
		C25.286,19.795,19.795,25.286,13.046,25.286z M13.046,1.913c-6.139,0-11.133,4.994-11.133,11.133
		c0,6.139,4.994,11.133,11.133,11.133s11.133-4.994,11.133-11.133C24.179,6.907,19.185,1.913,13.046,1.913z"/>
</g>
<path fill="none" stroke="#000000" stroke-width="2" stroke-linecap="round" stroke-miterlimit="10" d="M161.305,94.89
	c0,9.212,14.909,16.667,33.333,16.667"/>
<path fill="none" stroke="#000000" stroke-width="2" stroke-linecap="round" stroke-miterlimit="10" d="M227.972,94.89
	c0,9.212-14.909,16.667-33.333,16.667"/>
<g>
	<path fill="#E16562" d="M6.157,16.38c0.673,3.115,3.483,5.452,6.852,5.452c3.368,0,6.179-2.338,6.852-5.452H6.157z"/>
	<path fill="#E16562" d="M13.009,22.201c-3.461,0-6.494-2.415-7.213-5.743L5.7,16.011h14.618l-0.096,0.447
		C19.503,19.786,16.47,22.201,13.009,22.201z M6.632,16.749c0.809,2.757,3.419,4.714,6.377,4.714s5.568-1.957,6.377-4.714H6.632z"/>
</g>
</svg>
