<?xml version="1.0" encoding="utf-8"?>
<!-- Generator: Adobe Illustrator 17.0.0, SVG Export Plug-In . SVG Version: 6.00 Build 0)  -->
<!DOCTYPE svg PUBLIC "-//W3C//DTD SVG 1.1//EN" "http://www.w3.org/Graphics/SVG/1.1/DTD/svg11.dtd">
<svg version="1.1" id="Layer_1" xmlns="http://www.w3.org/2000/svg" xmlns:xlink="http://www.w3.org/1999/xlink" x="0px" y="0px"
	 width="26.092px" height="26.092px" viewBox="0 0 26.092 26.092" enable-background="new 0 0 26.092 26.092" xml:space="preserve">
<g>
	<circle fill="#E16562" cx="7.513" cy="12.165" r="1.371"/>
	<path fill="#E16562" d="M7.513,13.727c-0.861,0-1.562-0.701-1.562-1.562c0-0.861,0.701-1.562,1.562-1.562s1.562,0.701,1.562,1.562
		C9.075,13.026,8.374,13.727,7.513,13.727z M7.513,10.985c-0.651,0-1.18,0.529-1.18,1.18c0,0.651,0.529,1.18,1.18,1.18
		s1.18-0.529,1.18-1.18C8.693,11.514,8.164,10.985,7.513,10.985z"/>
</g>
<g>
	<circle fill="#E16562" cx="18.542" cy="12.165" r="1.371"/>
	<path fill="#E16562" d="M18.542,13.727c-0.861,0-1.562-0.701-1.562-1.562c0-0.861,0.701-1.562,1.562-1.562
		c0.861,0,1.562,0.701,1.562,1.562C20.103,13.026,19.403,13.727,18.542,13.727z M18.542,10.985c-0.651,0-1.18,0.529-1.18,1.18
		c0,0.651,0.529,1.18,1.18,1.18c0.651,0,1.18-0.529,1.18-1.18C19.722,11.514,19.192,10.985,18.542,10.985z"/>
</g>
<g>
	<path fill="#E16562" d="M13.002,25.769c-6.977,0-12.653-5.676-12.653-12.653c0-6.977,5.676-12.653,12.653-12.653
		s12.653,5.676,12.653,12.653C25.655,20.093,19.979,25.769,13.002,25.769z M13.002,1.608c-6.346,0-11.508,5.163-11.508,11.508
		c0,6.346,5.163,11.508,11.508,11.508S24.51,19.462,24.51,13.116C24.51,6.77,19.348,1.608,13.002,1.608z"/>
</g>
<path fill="none" stroke="#000000" stroke-width="2" stroke-linecap="round" stroke-miterlimit="10" d="M161.305,94.89
	c0,9.212,14.909,16.667,33.333,16.667"/>
<path fill="none" stroke="#000000" stroke-width="2" stroke-linecap="round" stroke-miterlimit="10" d="M227.972,94.89
	c0,9.212-14.909,16.667-33.333,16.667"/>
<g>
	<path fill="#E16562" d="M19.14,18.147c0,0.166-0.232,0.3-0.518,0.3L7.25,18.422c-0.285-0.001-0.517-0.136-0.516-0.302l0,0
		c0-0.166,0.232-0.3,0.518-0.3l11.372,0.025C18.909,17.846,19.14,17.981,19.14,18.147L19.14,18.147z"/>
	<path fill="#E16562" d="M18.624,18.638h-0.002L7.25,18.613c-0.171,0-0.335-0.041-0.461-0.115c-0.156-0.091-0.246-0.229-0.245-0.378
		c0.001-0.28,0.304-0.49,0.707-0.49l11.374,0.025c0.171,0,0.335,0.041,0.461,0.115c0.156,0.091,0.246,0.229,0.245,0.378
		C19.33,18.427,19.026,18.638,18.624,18.638z M7.251,18.011c-0.203,0-0.317,0.081-0.327,0.112c0.01,0.026,0.124,0.108,0.326,0.108
		l11.372,0.025l0.001,0.191v-0.191c0.201,0,0.316-0.081,0.325-0.112c-0.01-0.026-0.124-0.108-0.326-0.108L7.251,18.011z"/>
</g>
</svg>
