<?xml version="1.0" encoding="utf-8"?>
<!-- Generator: Adobe Illustrator 17.0.0, SVG Export Plug-In . SVG Version: 6.00 Build 0)  -->
<!DOCTYPE svg PUBLIC "-//W3C//DTD SVG 1.1//EN" "http://www.w3.org/Graphics/SVG/1.1/DTD/svg11.dtd">
<svg version="1.1" id="Layer_1" xmlns="http://www.w3.org/2000/svg" xmlns:xlink="http://www.w3.org/1999/xlink" x="0px" y="0px"
	 width="30px" height="30px" viewBox="0 0 30 30" enable-background="new 0 0 30 30" xml:space="preserve">
<rect x="-7.599" y="-6.466" fill="#E16562" width="50" height="48.333"/>
<g>
	<path fill="#FFFFFF" d="M15,29C7.28,29,1,22.72,1,15C1,7.28,7.28,1,15,1s14,6.28,14,14C29,22.72,22.72,29,15,29z M15,2.266
		C7.979,2.266,2.266,7.979,2.266,15c0,7.021,5.712,12.734,12.734,12.734S27.734,22.021,27.734,15
		C27.734,7.979,22.021,2.266,15,2.266z"/>
</g>
<path fill="none" stroke="#000000" stroke-width="2" stroke-linecap="round" stroke-miterlimit="10" d="M163.259,96.844
	c0,9.212,14.909,16.667,33.333,16.667"/>
<path fill="none" stroke="#000000" stroke-width="2" stroke-linecap="round" stroke-miterlimit="10" d="M229.926,96.844
	c0,9.212-14.909,16.667-33.333,16.667"/>
<g>
	<g>
		<path fill="#FFFFFF" d="M20.276,24.659H14.96l-7.564-9.867l7.564-9.853h5.315l-7.564,9.853L20.276,24.659z"/>
	</g>
</g>
</svg>
