<?xml version="1.0" encoding="utf-8"?>
<!-- Generator: Adobe Illustrator 17.0.0, SVG Export Plug-In . SVG Version: 6.00 Build 0)  -->
<!DOCTYPE svg PUBLIC "-//W3C//DTD SVG 1.1//EN" "http://www.w3.org/Graphics/SVG/1.1/DTD/svg11.dtd">
<svg version="1.1" id="Layer_1" xmlns="http://www.w3.org/2000/svg" xmlns:xlink="http://www.w3.org/1999/xlink" x="0px" y="0px"
	 width="32.75px" height="32.75px" viewBox="0 0 32.75 32.75" enable-background="new 0 0 32.75 32.75" xml:space="preserve">
<g>
	<g>
		<path fill="#434345" d="M16.32,32.355c-8.812,0-15.98-7.169-15.98-15.98c0-8.812,7.169-15.981,15.98-15.981
			s15.98,7.169,15.98,15.981C32.301,25.187,25.132,32.355,16.32,32.355z M16.32,1.84c-8.014,0-14.535,6.52-14.535,14.535
			c0,8.014,6.52,14.535,14.535,14.535s14.535-6.52,14.535-14.535C30.855,8.36,24.335,1.84,16.32,1.84z"/>
	</g>
</g>
<path fill="none" stroke="#000000" stroke-width="2" stroke-linecap="round" stroke-miterlimit="10" d="M164.634,98.219
	c0,9.212,14.909,16.667,33.333,16.667"/>
<path fill="none" stroke="#000000" stroke-width="2" stroke-linecap="round" stroke-miterlimit="10" d="M231.301,98.219
	c0,9.212-14.909,16.667-33.333,16.667"/>
<g>
	<g>
		<path fill="#434345" d="M17.135,21.091h-2.058v-2.373c0-0.515,0.119-0.986,0.357-1.415c0.238-0.429,0.529-0.829,0.872-1.201
			c0.343-0.372,0.715-0.729,1.115-1.072c0.4-0.343,0.767-0.71,1.101-1.101c0.333-0.39,0.615-0.805,0.844-1.244
			c0.229-0.438,0.343-0.943,0.343-1.515c0-0.972-0.31-1.762-0.929-2.373c-0.619-0.61-1.425-0.915-2.416-0.915
			c-0.972,0-1.777,0.286-2.416,0.858c-0.639,0.572-1.044,1.325-1.215,2.258l-2.144-0.257c0.114-0.743,0.338-1.41,0.672-2.001
			c0.333-0.591,0.753-1.091,1.258-1.501c0.505-0.41,1.081-0.719,1.729-0.929c0.648-0.209,1.344-0.314,2.087-0.314
			c0.762,0,1.477,0.11,2.144,0.329c0.667,0.219,1.244,0.539,1.73,0.958c0.486,0.419,0.867,0.943,1.143,1.572
			c0.276,0.629,0.414,1.344,0.414,2.144c0,0.8-0.114,1.477-0.343,2.03c-0.229,0.553-0.515,1.034-0.858,1.444
			c-0.343,0.41-0.715,0.777-1.115,1.101c-0.4,0.324-0.772,0.672-1.115,1.044c-0.343,0.372-0.629,0.796-0.858,1.272
			c-0.229,0.477-0.343,1.058-0.343,1.744V21.091z M17.822,25.208c0,0.4-0.143,0.758-0.429,1.072
			c-0.286,0.314-0.658,0.472-1.115,0.472c-0.458,0-0.829-0.157-1.115-0.472c-0.286-0.315-0.429-0.672-0.429-1.072
			c0-0.4,0.143-0.757,0.429-1.072c0.286-0.315,0.658-0.472,1.115-0.472c0.457,0,0.829,0.157,1.115,0.472
			C17.679,24.45,17.822,24.808,17.822,25.208z"/>
		<path fill="#434345" d="M16.278,26.998c-0.528,0-0.964-0.186-1.297-0.552c-0.327-0.36-0.493-0.776-0.493-1.238
			c0-0.462,0.166-0.878,0.493-1.238c0.333-0.367,0.77-0.552,1.297-0.552c0.528,0,0.964,0.186,1.297,0.553
			c0.327,0.36,0.493,0.776,0.493,1.238c0,0.462-0.166,0.878-0.493,1.238C17.242,26.812,16.805,26.998,16.278,26.998z M16.278,23.911
			c-0.388,0-0.693,0.128-0.933,0.391c-0.245,0.27-0.365,0.566-0.365,0.906c0,0.34,0.119,0.637,0.365,0.906
			c0.239,0.263,0.544,0.391,0.933,0.391c0.388,0,0.693-0.128,0.932-0.391c0.245-0.27,0.365-0.567,0.365-0.906
			c0-0.34-0.119-0.636-0.365-0.906C16.971,24.038,16.666,23.911,16.278,23.911z M17.382,21.338h-2.551v-2.619
			c0-0.555,0.131-1.071,0.388-1.535c0.246-0.444,0.551-0.864,0.906-1.248c0.347-0.376,0.729-0.743,1.135-1.092
			c0.389-0.333,0.75-0.694,1.074-1.074c0.32-0.375,0.594-0.778,0.812-1.198c0.209-0.4,0.315-0.872,0.315-1.401
			c0-0.911-0.28-1.63-0.856-2.197c-0.577-0.568-1.31-0.844-2.243-0.844c-0.905,0-1.663,0.267-2.251,0.795
			c-0.594,0.531-0.976,1.244-1.137,2.119l-0.042,0.228l-2.627-0.315l0.039-0.252c0.118-0.769,0.354-1.471,0.701-2.085
			c0.347-0.615,0.79-1.143,1.317-1.571c0.526-0.427,1.135-0.754,1.809-0.972c1.355-0.439,3.021-0.433,4.384,0.015
			c0.695,0.228,1.305,0.567,1.814,1.005c0.511,0.442,0.918,1,1.208,1.66c0.289,0.658,0.435,1.413,0.435,2.243
			c0,0.829-0.122,1.544-0.362,2.124c-0.237,0.573-0.539,1.081-0.896,1.508c-0.351,0.42-0.738,0.801-1.149,1.134
			c-0.39,0.316-0.756,0.659-1.089,1.019c-0.324,0.352-0.599,0.759-0.816,1.212c-0.212,0.441-0.319,0.992-0.319,1.637V21.338z
			 M15.324,20.845h1.565v-1.212c0-0.72,0.124-1.342,0.368-1.85c0.238-0.497,0.541-0.945,0.899-1.333
			c0.348-0.378,0.732-0.737,1.141-1.068c0.387-0.313,0.75-0.672,1.081-1.067c0.326-0.389,0.601-0.853,0.819-1.38
			c0.215-0.52,0.324-1.171,0.324-1.935c0-0.762-0.132-1.45-0.394-2.045c-0.26-0.592-0.623-1.092-1.079-1.485
			c-0.459-0.396-1.013-0.702-1.646-0.91c-1.264-0.415-2.821-0.42-4.078-0.014c-0.616,0.2-1.171,0.498-1.65,0.886
			c-0.479,0.389-0.882,0.87-1.199,1.431c-0.279,0.495-0.481,1.055-0.599,1.666l1.662,0.199c0.203-0.882,0.622-1.612,1.246-2.17
			c0.682-0.611,1.55-0.921,2.58-0.921c1.053,0,1.924,0.332,2.588,0.986c0.665,0.656,1.003,1.513,1.003,2.548
			c0,0.609-0.125,1.157-0.371,1.629c-0.236,0.452-0.53,0.886-0.875,1.29c-0.34,0.399-0.72,0.778-1.128,1.128
			c-0.392,0.336-0.76,0.69-1.094,1.052c-0.329,0.356-0.61,0.744-0.838,1.153c-0.217,0.389-0.326,0.825-0.326,1.295V20.845z"/>
	</g>
</g>
<g>
</g>
<g>
</g>
</svg>
