<?xml version="1.0" encoding="utf-8"?>
<!-- Generator: Adobe Illustrator 17.0.0, SVG Export Plug-In . SVG Version: 6.00 Build 0)  -->
<!DOCTYPE svg PUBLIC "-//W3C//DTD SVG 1.1//EN" "http://www.w3.org/Graphics/SVG/1.1/DTD/svg11.dtd">
<svg version="1.1" id="Layer_1" xmlns="http://www.w3.org/2000/svg" xmlns:xlink="http://www.w3.org/1999/xlink" x="0px" y="0px"
	 width="32.75px" height="32.75px" viewBox="0 0 32.75 32.75" enable-background="new 0 0 32.75 32.75" xml:space="preserve">
<g>
	<circle fill="#B0C536" cx="16.375" cy="16.175" r="15.278"/>
	<path fill="#B0C536" d="M16.375,32.176c-8.823,0-16.002-7.178-16.002-16.002c0-8.824,7.178-16.002,16.002-16.002
		s16.002,7.178,16.002,16.002C32.377,24.998,25.198,32.176,16.375,32.176z M16.375,1.62C8.35,1.62,1.821,8.149,1.821,16.175
		c0,8.025,6.529,14.554,14.554,14.554S30.929,24.2,30.929,16.175C30.929,8.149,24.4,1.62,16.375,1.62z"/>
</g>
<path fill="none" stroke="#000000" stroke-width="2" stroke-linecap="round" stroke-miterlimit="10" d="M164.634,98.019
	c0,9.212,14.909,16.667,33.333,16.667"/>
<path fill="none" stroke="#000000" stroke-width="2" stroke-linecap="round" stroke-miterlimit="10" d="M231.301,98.019
	c0,9.212-14.909,16.667-33.333,16.667"/>
</svg>
