<?xml version="1.0" encoding="utf-8"?>
<!-- Generator: Adobe Illustrator 17.0.0, SVG Export Plug-In . SVG Version: 6.00 Build 0)  -->
<!DOCTYPE svg PUBLIC "-//W3C//DTD SVG 1.1//EN" "http://www.w3.org/Graphics/SVG/1.1/DTD/svg11.dtd">
<svg version="1.1" id="Layer_1" xmlns="http://www.w3.org/2000/svg" xmlns:xlink="http://www.w3.org/1999/xlink" x="0px" y="0px"
	 width="22.228px" height="22.228px" viewBox="0 0 22.228 22.228" enable-background="new 0 0 22.228 22.228" xml:space="preserve">
<g>
	<g>
		<path fill="#E16562" d="M11.114,21.799c-5.892,0-10.685-4.793-10.685-10.685c0-5.892,4.793-10.685,10.685-10.685
			s10.685,4.793,10.685,10.685C21.799,17.006,17.006,21.799,11.114,21.799z M11.114,1.396c-5.359,0-9.718,4.36-9.718,9.718
			c0,5.359,4.36,9.718,9.718,9.718s9.718-4.36,9.718-9.718C20.832,5.755,16.473,1.396,11.114,1.396z"/>
	</g>
</g>
<path fill="none" stroke="#000000" stroke-width="2" stroke-linecap="round" stroke-miterlimit="10" d="M159.373,92.958
	c0,9.212,14.909,16.667,33.333,16.667"/>
<path fill="none" stroke="#000000" stroke-width="2" stroke-linecap="round" stroke-miterlimit="10" d="M226.04,92.958
	c0,9.212-14.909,16.667-33.333,16.667"/>
<g>
	<g>
		<path fill="#E16562" d="M17.086,16.18l-0.959,0.959l-4.986-4.986l-4.986,4.986l-0.95-0.959l4.986-4.986L5.206,6.209l0.95-0.95
			l4.986,4.986l4.986-4.986l0.959,0.95l-4.986,4.986L17.086,16.18z"/>
		<path fill="#E16562" d="M6.156,17.367l-1.177-1.187l4.985-4.985L4.978,6.209L6.156,5.03l4.986,4.986l4.985-4.985l1.187,1.177
			l-4.986,4.986l4.986,4.986l-1.187,1.187l-4.986-4.986L6.156,17.367z M11.142,11.925l4.986,4.986l0.731-0.731l-4.986-4.986
			l4.985-4.985l-0.73-0.724l-4.986,4.986L6.156,5.486L5.434,6.209l4.986,4.986L5.433,16.18l0.724,0.73L11.142,11.925z"/>
	</g>
</g>
</svg>
