<?xml version="1.0" encoding="utf-8"?>
<!-- Generator: Adobe Illustrator 17.0.0, SVG Export Plug-In . SVG Version: 6.00 Build 0)  -->
<!DOCTYPE svg PUBLIC "-//W3C//DTD SVG 1.1//EN" "http://www.w3.org/Graphics/SVG/1.1/DTD/svg11.dtd">
<svg version="1.1" id="Layer_1" xmlns="http://www.w3.org/2000/svg" xmlns:xlink="http://www.w3.org/1999/xlink" x="0px" y="0px"
	 width="84.4px" height="84.4px" viewBox="0 0 84.4 84.4" enable-background="new 0 0 84.4 84.4" xml:space="preserve">
<g>
	<circle fill="#E16562" cx="24.802" cy="38.472" r="4.479"/>
	<path fill="#E16562" d="M24.802,43.574c-2.813,0-5.102-2.289-5.102-5.102c0-2.813,2.289-5.102,5.102-5.102s5.102,2.289,5.102,5.102
		C29.904,41.285,27.615,43.574,24.802,43.574z M24.802,34.617c-2.126,0-3.856,1.73-3.856,3.855c0,2.126,1.73,3.856,3.856,3.856
		s3.856-1.73,3.856-3.856C28.658,36.346,26.928,34.617,24.802,34.617z"/>
</g>
<g>
	<circle fill="#E16562" cx="60.832" cy="38.472" r="4.479"/>
	<path fill="#E16562" d="M60.832,43.574c-2.813,0-5.102-2.289-5.102-5.102c0-2.813,2.289-5.102,5.102-5.102
		c2.813,0,5.101,2.289,5.101,5.102C65.934,41.285,63.645,43.574,60.832,43.574z M60.832,34.617c-2.126,0-3.856,1.73-3.856,3.855
		c0,2.126,1.73,3.856,3.856,3.856c2.126,0,3.855-1.73,3.855-3.856C64.687,36.346,62.958,34.617,60.832,34.617z"/>
</g>
<g>
	<path fill="#E16562" d="M42.2,83.703c-22.885,0-41.503-18.618-41.503-41.503c0-22.885,18.618-41.503,41.503-41.503
		S83.703,19.315,83.703,42.2C83.703,65.085,65.085,83.703,42.2,83.703z M42.2,4.451C21.385,4.451,4.451,21.385,4.451,42.2
		c0,20.815,16.934,37.749,37.749,37.749S79.949,63.015,79.949,42.2C79.949,21.385,63.015,4.451,42.2,4.451z"/>
</g>
<path fill="none" stroke="#000000" stroke-width="2" stroke-linecap="round" stroke-miterlimit="10" d="M190.459,124.044
	c0,9.212,14.909,16.667,33.333,16.667"/>
<path fill="none" stroke="#000000" stroke-width="2" stroke-linecap="round" stroke-miterlimit="10" d="M257.126,124.044
	c0,9.212-14.909,16.667-33.333,16.667"/>
<g>
	<g>
		<path fill="#E16562" d="M61.883,55.192c0.389,0.379,0.092,1.312-0.708,2.009c-10.545,9.21-26.336,9.21-36.881,0
			c-0.8-0.697-1.097-1.631-0.708-2.009l0,0c0.39-0.381,1.268-0.115,2.002,0.524c9.805,8.563,24.487,8.563,34.292,0
			C60.614,55.077,61.493,54.811,61.883,55.192L61.883,55.192z"/>
	</g>
	<g>
		<path fill="#E16562" d="M42.734,64.732c-6.942,0-13.636-2.508-18.851-7.062c-0.655-0.57-1.073-1.327-1.091-1.975
			c-0.01-0.378,0.117-0.716,0.358-0.951c0.616-0.597,1.836-0.379,2.847,0.501c4.629,4.043,10.572,6.269,16.736,6.269
			s12.108-2.226,16.736-6.268c1.012-0.882,2.233-1.101,2.847-0.501c0.24,0.234,0.368,0.571,0.358,0.95
			c-0.018,0.647-0.436,1.404-1.091,1.975C56.371,62.224,49.677,64.732,42.734,64.732z M24.081,55.639
			c-0.078,0.088,0.058,0.601,0.623,1.092c4.987,4.355,11.39,6.754,18.031,6.754s13.044-2.399,18.03-6.754
			c0.565-0.492,0.701-1.005,0.66-1.126c-0.271,0.033-0.702,0.203-1.135,0.581c-4.856,4.24-11.09,6.575-17.556,6.575
			s-12.7-2.335-17.556-6.576C24.745,55.808,24.315,55.639,24.081,55.639z"/>
	</g>
</g>
</svg>
