<?xml version="1.0" encoding="utf-8"?>
<!-- Generator: Adobe Illustrator 17.0.0, SVG Export Plug-In . SVG Version: 6.00 Build 0)  -->
<!DOCTYPE svg PUBLIC "-//W3C//DTD SVG 1.1//EN" "http://www.w3.org/Graphics/SVG/1.1/DTD/svg11.dtd">
<svg version="1.1" id="Layer_1" xmlns="http://www.w3.org/2000/svg" xmlns:xlink="http://www.w3.org/1999/xlink" x="0px" y="0px"
	 width="84.4px" height="84.4px" viewBox="0 0 84.4 84.4" enable-background="new 0 0 84.4 84.4" xml:space="preserve">
<g>
	<path fill="#E16562" d="M42.2,83.192c-22.603,0-40.992-18.389-40.992-40.992c0-22.603,18.389-40.992,40.992-40.992
		S83.192,19.597,83.192,42.2C83.192,64.803,64.803,83.192,42.2,83.192z M42.2,4.916 M42.2,79.484"/>
</g>
<g>
	<circle fill="#FFFFFF" cx="24.417" cy="37.911" r="4.441"/>
	<path fill="#FFFFFF" d="M24.417,42.97c-2.79,0-5.06-2.27-5.06-5.06c0-2.789,2.27-5.059,5.06-5.059s5.06,2.27,5.06,5.059
		C29.477,40.701,27.207,42.97,24.417,42.97z M24.417,34.088c-2.109,0-3.824,1.715-3.824,3.823c0,2.109,1.715,3.824,3.824,3.824
		s3.824-1.715,3.824-3.824C28.241,35.803,26.526,34.088,24.417,34.088z"/>
</g>
<g>
	<circle fill="#FFFFFF" cx="59.683" cy="37.911" r="4.441"/>
	<path fill="#FFFFFF" d="M59.684,42.97c-2.79,0-5.06-2.27-5.06-5.06c0-2.789,2.27-5.059,5.06-5.059c2.789,0,5.059,2.27,5.059,5.059
		C64.743,40.701,62.473,42.97,59.684,42.97z M59.684,34.088c-2.109,0-3.824,1.715-3.824,3.823c0,2.109,1.715,3.824,3.824,3.824
		c2.108,0,3.823-1.715,3.823-3.824C63.507,35.803,61.792,34.088,59.684,34.088z"/>
</g>
<path fill="none" stroke="#000000" stroke-width="2" stroke-linecap="round" stroke-miterlimit="10" d="M136.233,124.044
	c0,9.212,14.909,16.667,33.333,16.667"/>
<path fill="none" stroke="#000000" stroke-width="2" stroke-linecap="round" stroke-miterlimit="10" d="M202.9,124.044
	c0,9.212-14.909,16.667-33.333,16.667"/>
<g>
	<g>
		<path fill="#FFFFFF" d="M61.166,61.578c-0.395,0.368-1.263,0.091-1.981-0.554c-9.572-8.639-24.306-8.993-34.414-0.445
			c-0.756,0.638-1.643,0.901-2.021,0.515l0,0c-0.377-0.384-0.051-1.322,0.771-2.017c10.853-9.169,26.685-8.795,36.98,0.504
			C61.283,60.285,61.56,61.211,61.166,61.578L61.166,61.578z"/>
	</g>
	<g>
		<path fill="#FFFFFF" d="M60.689,62.36c-0.589,0-1.306-0.328-1.917-0.877c-4.654-4.2-10.699-6.513-17.022-6.513
			c-6.055,0-11.944,2.159-16.58,6.079c-1.04,0.879-2.263,1.087-2.862,0.475c-0.234-0.238-0.348-0.564-0.33-0.941
			c0.03-0.651,0.469-1.409,1.144-1.98c5.208-4.401,11.823-6.824,18.627-6.824c7.119,0,13.925,2.607,19.166,7.341
			c0.65,0.585,1.042,1.323,1.047,1.973c0.002,0.375-0.131,0.707-0.376,0.935C61.355,62.246,61.044,62.36,60.689,62.36z
			 M41.75,53.735c6.63,0,12.968,2.425,17.849,6.83c0.43,0.386,0.858,0.559,1.09,0.559c0.049,0,0.068-0.008,0.068-0.008
			c0.005-0.077-0.122-0.584-0.669-1.077c-5.014-4.529-11.527-7.023-18.339-7.023c-6.512,0-12.844,2.32-17.829,6.532
			c-0.588,0.497-0.742,1.023-0.705,1.148c0.268-0.041,0.708-0.211,1.157-0.59C29.231,55.997,35.402,53.735,41.75,53.735z"/>
	</g>
</g>
</svg>
