<?xml version="1.0" encoding="utf-8"?>
<!-- Generator: Adobe Illustrator 17.0.0, SVG Export Plug-In . SVG Version: 6.00 Build 0)  -->
<!DOCTYPE svg PUBLIC "-//W3C//DTD SVG 1.1//EN" "http://www.w3.org/Graphics/SVG/1.1/DTD/svg11.dtd">
<svg version="1.1" id="Layer_1" xmlns="http://www.w3.org/2000/svg" xmlns:xlink="http://www.w3.org/1999/xlink" x="0px" y="0px"
	 width="84.4px" height="84.4px" viewBox="0 0 84.4 84.4" enable-background="new 0 0 84.4 84.4" xml:space="preserve">
<g>
	<circle fill="#E16562" cx="24.232" cy="39.282" r="4.446"/>
	<path fill="#E16562" d="M24.232,44.347c-2.793,0-5.065-2.272-5.065-5.065c0-2.792,2.272-5.064,5.065-5.064s5.065,2.272,5.065,5.064
		C29.297,42.075,27.025,44.347,24.232,44.347z M24.232,35.455c-2.111,0-3.828,1.717-3.828,3.827c0,2.111,1.717,3.828,3.828,3.828
		s3.828-1.717,3.828-3.828C28.06,37.172,26.343,35.455,24.232,35.455z"/>
</g>
<g>
	<circle fill="#E16562" cx="59.998" cy="39.282" r="4.446"/>
	<path fill="#E16562" d="M59.999,44.347c-2.793,0-5.065-2.272-5.065-5.065c0-2.792,2.272-5.064,5.065-5.064
		c2.792,0,5.064,2.272,5.064,5.064C65.063,42.075,62.791,44.347,59.999,44.347z M59.999,35.455c-2.111,0-3.828,1.717-3.828,3.827
		c0,2.111,1.717,3.828,3.828,3.828c2.11,0,3.827-1.717,3.827-3.828C63.826,37.172,62.109,35.455,59.999,35.455z"/>
</g>
<g>
	<path fill="#E16562" d="M42.033,83.4C19.407,83.4,1,64.993,1,42.367C1,19.74,19.407,1.333,42.033,1.333S83.067,19.74,83.067,42.367
		C83.067,64.993,64.659,83.4,42.033,83.4z M42.033,5.044c-20.579,0-37.322,16.743-37.322,37.322
		c0,20.579,16.743,37.322,37.322,37.322s37.322-16.743,37.322-37.322C79.355,21.787,62.613,5.044,42.033,5.044z"/>
</g>
<path fill="none" stroke="#000000" stroke-width="2" stroke-linecap="round" stroke-miterlimit="10" d="M190.459,124.044
	c0,9.212,14.909,16.667,33.333,16.667"/>
<path fill="none" stroke="#000000" stroke-width="2" stroke-linecap="round" stroke-miterlimit="10" d="M257.126,124.044
	c0,9.212-14.909,16.667-33.333,16.667"/>
<g>
	<path fill="#E16562" d="M61.938,58.684c-0.001,0.539-0.753,0.974-1.678,0.972l-36.879-0.08c-0.926-0.002-1.675-0.441-1.674-0.98
		l0,0c0.001-0.539,0.753-0.974,1.678-0.972l36.879,0.08C61.189,57.706,61.939,58.145,61.938,58.684L61.938,58.684z"/>
	<path fill="#E16562" d="M60.265,60.275h-0.007l-36.879-0.08c-0.555-0.001-1.086-0.134-1.496-0.373
		c-0.507-0.297-0.797-0.744-0.796-1.226c0.002-0.907,0.987-1.59,2.291-1.59l36.886,0.08c0.556,0.001,1.087,0.134,1.496,0.373
		c0.507,0.297,0.797,0.744,0.796,1.226C62.555,59.591,61.569,60.275,60.265,60.275z M23.383,58.242c-0.657,0-1.028,0.263-1.06,0.364
		c0.031,0.084,0.404,0.35,1.058,0.351l36.879,0.08l0.005,0.619v-0.619c0.652,0,1.024-0.263,1.055-0.364
		c-0.031-0.084-0.404-0.35-1.058-0.351L23.383,58.242z"/>
</g>
</svg>
