<?xml version="1.0" encoding="utf-8"?>
<!-- Generator: Adobe Illustrator 17.0.0, SVG Export Plug-In . SVG Version: 6.00 Build 0)  -->
<!DOCTYPE svg PUBLIC "-//W3C//DTD SVG 1.1//EN" "http://www.w3.org/Graphics/SVG/1.1/DTD/svg11.dtd">
<svg version="1.1" id="Layer_1" xmlns="http://www.w3.org/2000/svg" xmlns:xlink="http://www.w3.org/1999/xlink" x="0px" y="0px"
	 width="84.4px" height="84.4px" viewBox="0 0 84.4 84.4" enable-background="new 0 0 84.4 84.4" xml:space="preserve">
<g>
	<circle fill="#E16562" cx="25.519" cy="38.466" r="4.303"/>
	<path fill="#E16562" d="M25.519,43.367c-2.703,0-4.902-2.199-4.902-4.902c0-2.702,2.199-4.901,4.902-4.901s4.902,2.199,4.902,4.901
		C30.421,41.169,28.222,43.367,25.519,43.367z M25.519,34.762c-2.043,0-3.704,1.662-3.704,3.704c0,2.043,1.662,3.704,3.704,3.704
		s3.704-1.662,3.704-3.704C29.223,36.423,27.562,34.762,25.519,34.762z"/>
</g>
<g>
	<circle fill="#E16562" cx="60.135" cy="38.466" r="4.303"/>
	<path fill="#E16562" d="M60.135,43.367c-2.703,0-4.902-2.199-4.902-4.902c0-2.702,2.199-4.901,4.902-4.901
		c2.702,0,4.901,2.199,4.901,4.901C65.036,41.169,62.837,43.367,60.135,43.367z M60.135,34.762c-2.043,0-3.704,1.662-3.704,3.704
		c0,2.043,1.662,3.704,3.704,3.704c2.042,0,3.704-1.662,3.704-3.704C63.839,36.423,62.177,34.762,60.135,34.762z"/>
</g>
<g>
	<path fill="#E16562" d="M42.381,82.165c-22.247,0-40.347-18.1-40.347-40.347c0-22.248,18.1-40.348,40.347-40.348
		s40.347,18.1,40.347,40.348C82.728,64.065,64.628,82.165,42.381,82.165z M42.381,5.12c-20.235,0-36.698,16.463-36.698,36.698
		c0,20.235,16.463,36.698,36.698,36.698s36.698-16.463,36.698-36.698C79.078,21.582,62.616,5.12,42.381,5.12z"/>
</g>
<path fill="none" stroke="#000000" stroke-width="2" stroke-linecap="round" stroke-miterlimit="10" d="M190.459,124.044
	c0,9.212,14.909,16.667,33.333,16.667"/>
<path fill="none" stroke="#000000" stroke-width="2" stroke-linecap="round" stroke-miterlimit="10" d="M257.126,124.044
	c0,9.212-14.909,16.667-33.333,16.667"/>
<g>
	<path fill="#E16562" d="M20.396,52.268c2.182,10.106,11.303,17.69,22.231,17.69c10.929,0,20.049-7.585,22.231-17.69H20.396z"/>
	<path fill="#E16562" d="M42.628,71.155c-11.229,0-21.07-7.837-23.402-18.635l-0.313-1.45h47.43l-0.313,1.45
		C63.698,63.318,53.856,71.155,42.628,71.155z M21.935,53.465C24.56,62.412,33.03,68.76,42.628,68.76s18.068-6.348,20.692-15.295
		H21.935z"/>
</g>
</svg>
