<?xml version="1.0" encoding="utf-8"?>
<!-- Generator: Adobe Illustrator 17.0.0, SVG Export Plug-In . SVG Version: 6.00 Build 0)  -->
<!DOCTYPE svg PUBLIC "-//W3C//DTD SVG 1.1//EN" "http://www.w3.org/Graphics/SVG/1.1/DTD/svg11.dtd">
<svg version="1.1" id="Layer_1" xmlns="http://www.w3.org/2000/svg" xmlns:xlink="http://www.w3.org/1999/xlink" x="0px" y="0px"
	 width="256.051px" height="254.541px" viewBox="0 0 256.051 254.541" enable-background="new 0 0 256.051 254.541"
	 xml:space="preserve">
<circle fill="#FFFFFF" cx="128.482" cy="126.493" r="123.804"/>
<g>
	<g>
		<defs>
			<rect id="SVGID_1_" x="28.542" y="55.833" width="194.451" height="110.822"/>
		</defs>
		<clipPath id="SVGID_2_">
			<use xlink:href="#SVGID_1_"  overflow="visible"/>
		</clipPath>
		<g clip-path="url(#SVGID_2_)">
			<defs>
				<rect id="SVGID_3_" x="28.542" y="55.833" width="194.451" height="110.822"/>
			</defs>
			<clipPath id="SVGID_4_">
				<use xlink:href="#SVGID_3_"  overflow="visible"/>
			</clipPath>
			<path clip-path="url(#SVGID_4_)" fill="#E16562" d="M102.648,131.614c-0.711,1.516-1.547,2.676-2.505,3.48
				c-0.96,0.804-1.872,1.392-2.738,1.763c-1.021,0.433-2.057,0.681-3.109,0.742c-1.392,0-2.529-0.217-3.411-0.649
				c-0.882-0.433-1.585-1.005-2.111-1.717c-0.525-0.711-0.889-1.516-1.09-2.413c-0.201-0.897-0.301-1.81-0.301-2.738v-19.441
				c0-0.495-0.093-0.936-0.279-1.323c-0.185-0.387-0.433-0.611-0.742-0.673c-0.31-0.061-0.681,0.093-1.113,0.464
				c-0.434,0.371-0.897,1.037-1.392,1.996c-0.835,2.475-1.594,5.073-2.274,7.795c-0.588,2.351-1.122,5.004-1.601,7.957
				c-0.48,2.954-0.75,5.994-0.812,9.118l-8.537,2.969v-28.303c0-0.495-0.093-0.936-0.279-1.323c-0.185-0.387-0.44-0.611-0.765-0.673
				c-0.325-0.061-0.704,0.093-1.137,0.464c-0.433,0.371-0.882,1.037-1.346,1.996c-0.928,2.598-1.733,5.305-2.413,8.12
				c-0.31,1.206-0.603,2.49-0.882,3.851c-0.278,1.361-0.518,2.761-0.719,4.199c-0.201,1.439-0.363,2.893-0.487,4.362
				c-0.124,1.47-0.17,2.916-0.139,4.339l-8.445,2.969v-31.181c0-0.742-0.17-1.33-0.51-1.763c-0.341-0.432-0.782-0.657-1.323-0.673
				c-0.541-0.015-1.137,0.178-1.786,0.58c-0.65,0.403-1.284,1.052-1.903,1.949l-1.253-1.392c0.711-1.485,1.539-2.637,2.483-3.457
				c0.943-0.819,1.863-1.415,2.761-1.786c1.021-0.433,2.072-0.68,3.155-0.742c1.361,0,2.483,0.217,3.364,0.649
				c0.882,0.433,1.577,0.997,2.088,1.694c0.511,0.696,0.866,1.492,1.067,2.39c0.201,0.897,0.302,1.81,0.302,2.738v9.79
				c0.557-2.783,1.392-5.243,2.506-7.377c1.113-2.134,2.281-3.936,3.503-5.405c1.222-1.469,2.42-2.583,3.596-3.34
				c1.175-0.758,2.119-1.137,2.831-1.137c0.897,0,1.624,0.146,2.181,0.44c0.557,0.295,0.99,0.735,1.299,1.323
				c0.309,0.588,0.518,1.307,0.626,2.157c0.108,0.851,0.162,1.849,0.162,2.993v10.347c0.588-2.783,1.431-5.243,2.529-7.377
				c1.098-2.134,2.266-3.936,3.504-5.405c1.237-1.469,2.443-2.583,3.619-3.34c1.175-0.758,2.119-1.137,2.831-1.137
				c1.763,0,2.915,0.58,3.457,1.74c0.54,1.161,0.811,2.885,0.811,5.174v22.922c0,0.742,0.17,1.33,0.511,1.763
				c0.34,0.433,0.773,0.657,1.299,0.673c0.525,0.016,1.106-0.178,1.74-0.58c0.633-0.402,1.26-1.052,1.879-1.949L102.648,131.614z"/>
			<path clip-path="url(#SVGID_4_)" fill="#E16562" d="M138.362,130.613c-0.343,0.742-0.771,1.442-1.285,2.098
				c-0.514,0.657-1.107,1.242-1.778,1.756c-0.671,0.514-1.399,0.921-2.184,1.221c-0.785,0.3-1.606,0.45-2.462,0.45
				c-2.256,0-3.876-0.621-4.862-1.864c-0.986-1.242-1.478-2.933-1.478-5.076v-0.771c-0.514,0.971-1.092,1.942-1.735,2.913
				c-0.642,0.971-1.37,1.841-2.184,2.612c-0.814,0.771-1.72,1.399-2.719,1.885c-1,0.485-2.114,0.728-3.341,0.728
				c-1.856,0-3.498-0.357-4.926-1.071c-1.428-0.713-2.627-1.677-3.598-2.891c-0.971-1.213-1.699-2.634-2.184-4.262
				c-0.486-1.628-0.728-3.355-0.728-5.183c0-2.484,0.435-4.962,1.306-7.432s2.099-4.676,3.683-6.618
				c1.585-1.941,3.484-3.519,5.698-4.733c2.212-1.213,4.676-1.82,7.388-1.82c1.085,0,2.17,0.101,3.255,0.3
				c1.085,0.2,2.12,0.521,3.105,0.964c0.985,0.443,1.885,1.021,2.699,1.734c0.813,0.714,1.477,1.585,1.991,2.613l-6.382,2.698
				c-0.343-0.542-0.736-1.063-1.178-1.563c-0.443-0.5-0.928-0.935-1.456-1.307c-0.529-0.37-1.092-0.67-1.692-0.899
				c-0.6-0.228-1.228-0.343-1.884-0.343c-1.485,0-2.806,0.457-3.962,1.371s-2.141,2.042-2.955,3.383
				c-0.814,1.343-1.435,2.77-1.863,4.283c-0.428,1.514-0.643,2.884-0.643,4.112c0,1.085,0.107,2.306,0.322,3.662
				c0.214,1.357,0.592,2.634,1.135,3.834c0.542,1.199,1.256,2.213,2.141,3.04c0.885,0.829,1.998,1.242,3.341,1.242
				c1.056,0,1.97-0.235,2.741-0.706c0.77-0.471,1.427-1.085,1.97-1.842c0.542-0.756,0.991-1.627,1.349-2.612
				c0.356-0.985,0.628-1.992,0.813-3.02c0.186-1.028,0.314-2.048,0.386-3.062c0.071-1.013,0.107-1.92,0.107-2.72v-2.955l7.796-2.741
				v17.391c0,0.571,0.142,1.092,0.428,1.563c0.285,0.471,0.728,0.706,1.328,0.706c0.713,0,1.363-0.263,1.948-0.792
				c0.585-0.528,1.05-1.063,1.392-1.606L138.362,130.613z M112.576,92.406c0.542,0,1.056,0.107,1.542,0.321
				c0.485,0.214,0.913,0.507,1.285,0.878c0.371,0.372,0.664,0.807,0.878,1.306c0.214,0.5,0.321,1.022,0.321,1.564
				c0,0.542-0.107,1.056-0.321,1.541c-0.214,0.486-0.507,0.914-0.878,1.285c-0.372,0.372-0.8,0.664-1.285,0.878
				c-0.486,0.214-1,0.322-1.542,0.322c-0.571,0-1.099-0.108-1.585-0.322c-0.485-0.214-0.914-0.506-1.284-0.878
				c-0.372-0.371-0.657-0.799-0.857-1.285c-0.2-0.485-0.3-0.999-0.3-1.541c0-0.542,0.1-1.064,0.3-1.564
				c0.2-0.499,0.485-0.934,0.857-1.306c0.37-0.371,0.799-0.664,1.284-0.878C111.477,92.513,112.005,92.406,112.576,92.406
				 M125.298,92.406c0.542,0,1.056,0.107,1.542,0.321c0.485,0.214,0.906,0.507,1.263,0.878c0.357,0.372,0.635,0.807,0.835,1.306
				c0.2,0.5,0.3,1.022,0.3,1.564c0,0.542-0.1,1.056-0.3,1.541c-0.2,0.486-0.478,0.914-0.835,1.285
				c-0.357,0.372-0.778,0.664-1.263,0.878c-0.486,0.214-1,0.322-1.542,0.322c-0.571,0-1.099-0.108-1.585-0.322
				c-0.485-0.214-0.914-0.506-1.284-0.878c-0.372-0.371-0.658-0.799-0.857-1.285c-0.2-0.485-0.3-0.999-0.3-1.541
				c0-0.542,0.1-1.064,0.3-1.564c0.199-0.499,0.485-0.934,0.857-1.306c0.37-0.371,0.799-0.664,1.284-0.878
				C124.199,92.513,124.727,92.406,125.298,92.406"/>
			<path clip-path="url(#SVGID_4_)" fill="#E16562" d="M156.076,130.699c-0.657,1.399-1.413,2.47-2.27,3.212
				c-0.856,0.743-1.699,1.285-2.527,1.628c-0.942,0.399-1.913,0.627-2.912,0.685c-1.285,0-2.334-0.2-3.148-0.6
				c-0.814-0.399-1.456-0.927-1.927-1.584c-0.471-0.657-0.8-1.399-0.985-2.227c-0.186-0.828-0.279-1.671-0.279-2.527v-22.445h-4.54
				l1.841-4.283h2.698V87.395l7.839-2.741v17.904h8.138l-1.756,4.283h-6.382v22.659c0,0.685,0.157,1.228,0.471,1.627
				c0.314,0.4,0.714,0.607,1.199,0.621c0.485,0.015,1.028-0.164,1.628-0.535c0.599-0.371,1.184-0.971,1.756-1.799L156.076,130.699z"
				/>
			<path clip-path="url(#SVGID_4_)" fill="#E16562" d="M178.2,130.699c-0.657,1.399-1.413,2.47-2.27,3.212
				c-0.856,0.743-1.699,1.285-2.527,1.628c-0.942,0.399-1.913,0.627-2.912,0.685c-1.285,0-2.334-0.2-3.148-0.6
				c-0.814-0.399-1.456-0.927-1.927-1.584c-0.471-0.657-0.8-1.399-0.985-2.227c-0.186-0.828-0.279-1.671-0.279-2.527v-22.445h-4.54
				l1.841-4.283h2.698V87.395l7.839-2.741v17.904h8.138l-1.756,4.283h-6.382v22.659c0,0.685,0.157,1.228,0.471,1.627
				c0.314,0.4,0.714,0.607,1.199,0.621c0.485,0.015,1.028-0.164,1.628-0.535c0.599-0.371,1.184-0.971,1.756-1.799L178.2,130.699z"/>
			<path clip-path="url(#SVGID_4_)" fill="#E16562" d="M194.452,80.43l-3.161,43.214l-4.125,1.003l-3.238-41.364L194.452,80.43z
				 M193.642,132.78c0,0.617-0.116,1.195-0.347,1.735c-0.231,0.539-0.546,1.008-0.944,1.407c-0.399,0.398-0.861,0.713-1.388,0.944
				c-0.527,0.232-1.099,0.347-1.716,0.347s-1.201-0.116-1.754-0.347c-0.554-0.231-1.028-0.546-1.426-0.944
				c-0.399-0.399-0.72-0.868-0.964-1.407c-0.245-0.54-0.366-1.118-0.366-1.735c0-0.617,0.121-1.195,0.366-1.735
				c0.244-0.539,0.565-1.015,0.964-1.426c0.398-0.411,0.873-0.738,1.426-0.982c0.553-0.244,1.137-0.367,1.754-0.367
				s1.189,0.123,1.716,0.367c0.526,0.245,0.989,0.572,1.388,0.982c0.398,0.411,0.713,0.887,0.944,1.426
				C193.526,131.586,193.642,132.164,193.642,132.78"/>
		</g>
	</g>
</g>
<rect x="37.295" y="158.175" fill="none" width="181.04" height="43.248"/>
<text transform="matrix(1 0 0 1 85.6618 168.4403)"><tspan x="0" y="0" fill="#E26562" font-family="'Avenir-Light'" font-size="13.578">Dahl, de Flon, </tspan><tspan x="-7.026" y="16.293" fill="#E26562" font-family="'Avenir-Light'" font-size="13.578">Nåbo, Mellblom</tspan></text>
</svg>
