<?xml version="1.0" encoding="utf-8"?>
<!-- Generator: Adobe Illustrator 17.0.0, SVG Export Plug-In . SVG Version: 6.00 Build 0)  -->
<!DOCTYPE svg PUBLIC "-//W3C//DTD SVG 1.1//EN" "http://www.w3.org/Graphics/SVG/1.1/DTD/svg11.dtd">
<svg version="1.1" id="Layer_1" xmlns="http://www.w3.org/2000/svg" xmlns:xlink="http://www.w3.org/1999/xlink" x="0px" y="0px"
	 width="26.092px" height="29.092px" viewBox="0 0 26.092 29.092" enable-background="new 0 0 26.092 29.092" xml:space="preserve">
<ellipse fill="#E16562" stroke="#E16562" stroke-miterlimit="10" cx="7.929" cy="13.443" rx="1.278" ry="1.286"/>
<ellipse fill="#E16562" stroke="#E16562" stroke-miterlimit="10" cx="18.21" cy="13.443" rx="1.278" ry="1.286"/>
<ellipse fill="none" stroke="#E16562" stroke-width="2" stroke-miterlimit="10" cx="13.046" cy="14.335" rx="11.262" ry="11.335"/>
<path fill="none" stroke="#000000" stroke-width="2" stroke-linecap="round" stroke-miterlimit="10" d="M161.305,96.39
	c0,9.212,14.909,16.667,33.333,16.667"/>
<path fill="none" stroke="#000000" stroke-width="2" stroke-linecap="round" stroke-miterlimit="10" d="M227.972,96.39
	c0,9.212-14.909,16.667-33.333,16.667"/>
<g>
	<path fill="#E16562" d="M18.512,18.245c0.112,0.109,0.027,0.376-0.201,0.575c-3.011,2.629-7.519,2.629-10.529,0
		c-0.228-0.199-0.313-0.466-0.201-0.575c0,0,0,0,0,0c0.112-0.109,0.363-0.034,0.573,0.148c2.798,2.444,6.988,2.444,9.786,0
		C18.148,18.211,18.4,18.135,18.512,18.245L18.512,18.245z"/>
	<path fill="none" stroke="#E16562" stroke-miterlimit="10" d="M18.512,18.245c0.112,0.109,0.027,0.376-0.201,0.575
		c-3.011,2.629-7.519,2.629-10.529,0c-0.228-0.199-0.313-0.466-0.201-0.575c0,0,0,0,0,0c0.112-0.109,0.363-0.034,0.573,0.148
		c2.798,2.444,6.988,2.444,9.786,0C18.148,18.211,18.4,18.135,18.512,18.245L18.512,18.245z"/>
</g>
</svg>
