<?xml version="1.0" encoding="utf-8"?>
<!-- Generator: Adobe Illustrator 17.0.0, SVG Export Plug-In . SVG Version: 6.00 Build 0)  -->
<!DOCTYPE svg PUBLIC "-//W3C//DTD SVG 1.1//EN" "http://www.w3.org/Graphics/SVG/1.1/DTD/svg11.dtd">
<svg version="1.1" id="Layer_1" xmlns="http://www.w3.org/2000/svg" xmlns:xlink="http://www.w3.org/1999/xlink" x="0px" y="0px"
	 width="75.288px" height="75.29px" viewBox="0 0 75.288 75.29" enable-background="new 0 0 75.288 75.29" xml:space="preserve">
<g>
	<path fill="#E16562" d="M37.4,72.812c-19.808,0-35.922-16.115-35.922-35.923S17.592,0.966,37.4,0.966
		c19.808,0,35.923,16.115,35.923,35.923S57.208,72.812,37.4,72.812z M37.4,3.966c-18.153,0-32.922,14.769-32.922,32.923
		S19.247,69.812,37.4,69.812c18.154,0,32.923-14.769,32.923-32.923S55.554,3.966,37.4,3.966z"/>
</g>
<path fill="none" stroke="#000000" stroke-width="2" stroke-linecap="round" stroke-miterlimit="10" d="M185.903,119.489
	c0,9.212,14.909,16.667,33.333,16.667"/>
<path fill="none" stroke="#000000" stroke-width="2" stroke-linecap="round" stroke-miterlimit="10" d="M252.57,119.489
	c0,9.212-14.909,16.667-33.333,16.667"/>
<g>
	<path fill="#E16562" d="M27.383,53.4c-2.179,0-4.246-0.363-6.2-1.09c-1.955-0.726-3.589-1.971-4.903-3.735l3.632-3.165
		c0.76,1.176,1.824,2.11,3.191,2.801c1.366,0.692,2.792,1.072,4.28,1.141V36.175c-1.349-0.346-2.646-0.804-3.891-1.375
		c-1.246-0.571-2.344-1.271-3.295-2.101c-0.951-0.83-1.704-1.824-2.257-2.983c-0.554-1.158-0.83-2.516-0.83-4.073
		c0-1.452,0.277-2.784,0.83-3.995c0.553-1.21,1.305-2.257,2.257-3.138c0.951-0.882,2.049-1.591,3.295-2.127
		c1.245-0.536,2.542-0.856,3.891-0.96v-3.424h2.49v3.424c1.868,0,3.71,0.346,5.525,1.037c1.816,0.692,3.328,1.747,4.54,3.165
		l-3.425,3.112c-0.796-1.037-1.763-1.842-2.905-2.412c-1.141-0.571-2.387-0.856-3.736-0.856v12.918
		c1.383,0.45,2.732,0.934,4.047,1.452c1.314,0.519,2.481,1.167,3.502,1.946c1.02,0.778,1.832,1.738,2.438,2.88
		c0.604,1.141,0.908,2.56,0.908,4.255c0,1.557-0.294,2.957-0.882,4.202c-0.589,1.245-1.375,2.317-2.361,3.217
		c-0.986,0.9-2.136,1.608-3.45,2.127c-1.315,0.519-2.716,0.83-4.202,0.934v3.683h-2.49V53.4z M27.383,19.469
		c-1.694,0.311-3.053,1.011-4.072,2.101c-1.021,1.089-1.531,2.464-1.531,4.124c0,0.9,0.146,1.66,0.441,2.283
		c0.293,0.623,0.692,1.159,1.193,1.609c0.501,0.45,1.089,0.839,1.764,1.167c0.674,0.329,1.409,0.649,2.205,0.96V19.469z
		 M29.874,49.353c1.764-0.208,3.243-0.882,4.436-2.023c1.193-1.141,1.79-2.542,1.79-4.202c0-0.935-0.174-1.747-0.519-2.439
		c-0.346-0.691-0.813-1.279-1.4-1.763c-0.589-0.484-1.254-0.89-1.998-1.22c-0.744-0.329-1.514-0.614-2.309-0.856V49.353z"/>
</g>
<g>
	<path fill="#E16562" d="M54.487,53.541c0,0.87-0.311,1.648-0.933,2.332c-0.622,0.684-1.43,1.026-2.425,1.026
		c-0.994,0-1.803-0.342-2.425-1.026c-0.622-0.684-0.933-1.462-0.933-2.332s0.311-1.648,0.933-2.332
		c0.622-0.684,1.43-1.026,2.425-1.026c0.995,0,1.803,0.342,2.425,1.026C54.176,51.893,54.487,52.671,54.487,53.541z M53.367,44.587
		H48.89V12.504h4.477V44.587z"/>
</g>
</svg>
