<?xml version="1.0" encoding="utf-8"?>
<!-- Generator: Adobe Illustrator 17.0.0, SVG Export Plug-In . SVG Version: 6.00 Build 0)  -->
<!DOCTYPE svg PUBLIC "-//W3C//DTD SVG 1.1//EN" "http://www.w3.org/Graphics/SVG/1.1/DTD/svg11.dtd">
<svg version="1.1" id="Layer_1" xmlns="http://www.w3.org/2000/svg" xmlns:xlink="http://www.w3.org/1999/xlink" x="0px" y="0px"
	 width="75.288px" height="75.29px" viewBox="0 0 75.288 75.29" enable-background="new 0 0 75.288 75.29" xml:space="preserve">
<circle fill="none" stroke="#E16562" stroke-width="3" stroke-miterlimit="10" cx="37.4" cy="36.889" r="34.423"/>
<path fill="none" stroke="#000000" stroke-width="2" stroke-linecap="round" stroke-miterlimit="10" d="M185.903,119.489
	c0,9.212,14.909,16.667,33.333,16.667"/>
<path fill="none" stroke="#000000" stroke-width="2" stroke-linecap="round" stroke-miterlimit="10" d="M252.57,119.489
	c0,9.212-14.909,16.667-33.333,16.667"/>
<circle fill="none" stroke="#E16562" stroke-width="2" stroke-miterlimit="10" cx="37.564" cy="36.02" r="22.964"/>
<path fill="none" stroke="#E16562" stroke-width="2" stroke-miterlimit="10" d="M14.532,36.712c-0.189-2.662-0.07-5.271,0.698-6.716
	c-0.628-0.302-1.026-0.23-1.733-0.18c-2.62,0.186-4.556,2.977-4.325,6.233c0.231,3.256,2.543,5.745,5.163,5.559
	c0.418-0.03,0.418-0.03,0.846-0.017C14.673,40.326,14.656,38.464,14.532,36.712z"/>
<path fill="none" stroke="#E16562" stroke-width="2" stroke-miterlimit="10" d="M60.739,36.751c0.246-2.664-0.107-5.349-0.816-6.82
	c0.614-0.285,1.298-0.137,1.981-0.066c2.528,0.26,4.333,3.113,4.031,6.372c-0.301,3.259-2.595,5.689-5.123,5.429
	c-0.404-0.042-0.404-0.042-0.817-0.041C60.517,40.37,60.577,38.504,60.739,36.751z"/>
<g>
	<path fill="none" stroke="#E16562" stroke-width="1.5" stroke-miterlimit="10" d="M20.389,36.01c1.642-5.055,8.794-5.055,10.436,0"
		/>
</g>
<g>
	<path fill="none" stroke="#E16562" stroke-width="1.5" stroke-miterlimit="10" d="M29.682,46.021c2.259,6.598,11.591,6.598,13.85,0
		"/>
</g>
<g>
	<path fill="none" stroke="#E16562" stroke-width="1.5" stroke-miterlimit="10" d="M42.129,36.01c1.642-5.055,8.794-5.055,10.436,0"
		/>
</g>
<path fill="none" stroke="#E16562" stroke-width="1.5" stroke-miterlimit="10" d="M36.968,13.056
	c3.691,0.71,6.145,4.289,5.482,7.994c-0.53,2.964-3.354,4.906-6.306,4.339c-2.362-0.454-3.933-2.745-3.509-5.116
	c0.339-1.897,2.146-3.14,4.036-2.777c1.512,0.291,2.517,1.757,2.246,3.274c-0.217,1.214-1.374,2.01-2.583,1.777
	c-0.967-0.186-1.611-1.124-1.437-2.096c0.139-0.777,0.879-1.286,1.653-1.137"/>
<ellipse fill="#E16562" cx="22.148" cy="41.553" rx="3.267" ry="1.14"/>
<ellipse fill="#E16562" cx="50.615" cy="41.553" rx="3.267" ry="1.14"/>
</svg>
