<?xml version="1.0" encoding="utf-8"?>
<!-- Generator: Adobe Illustrator 17.0.0, SVG Export Plug-In . SVG Version: 6.00 Build 0)  -->
<!DOCTYPE svg PUBLIC "-//W3C//DTD SVG 1.1//EN" "http://www.w3.org/Graphics/SVG/1.1/DTD/svg11.dtd">
<svg version="1.1" id="Layer_1" xmlns="http://www.w3.org/2000/svg" xmlns:xlink="http://www.w3.org/1999/xlink" x="0px" y="0px"
	 width="75.288px" height="75.29px" viewBox="0 0 75.288 75.29" enable-background="new 0 0 75.288 75.29" xml:space="preserve">
<g>
	<path fill="#E16562" d="M37.4,72.812c-19.808,0-35.922-16.115-35.922-35.923S17.592,0.966,37.4,0.966
		c19.808,0,35.923,16.115,35.923,35.923S57.208,72.812,37.4,72.812z M37.4,69.812"/>
</g>
<path fill="none" stroke="#000000" stroke-width="2" stroke-linecap="round" stroke-miterlimit="10" d="M185.903,119.489
	c0,9.212,14.909,16.667,33.333,16.667"/>
<path fill="none" stroke="#000000" stroke-width="2" stroke-linecap="round" stroke-miterlimit="10" d="M252.57,119.489
	c0,9.212-14.909,16.667-33.333,16.667"/>
<g>
	<path fill="#FFFFFF" d="M37.473,26.132c0.938-3.03,2.265-5.308,3.979-6.833c1.714-1.525,3.815-2.288,6.305-2.288
		c2.693,0,4.974,0.869,6.841,2.604c1.867,1.736,2.8,3.849,2.8,6.337c0,1.666-0.541,3.643-1.622,5.93
		c-1.082,2.288-2.653,4.756-4.713,7.406l-1.469,1.896c-6.978,8.951-11.018,15.614-12.12,19.988
		c-1.205-4.455-5.275-11.138-12.212-20.049c-0.612-0.783-1.082-1.374-1.408-1.776c-2.061-2.649-3.632-5.118-4.713-7.405
		c-1.082-2.288-1.622-4.285-1.622-5.991c0-2.488,0.934-4.601,2.801-6.337c1.867-1.735,4.157-2.604,6.871-2.604
		c2.468,0,4.555,0.758,6.259,2.273C35.152,20.799,36.494,23.082,37.473,26.132z"/>
</g>
</svg>
