<?xml version="1.0" encoding="utf-8"?>
<!-- Generator: Adobe Illustrator 17.0.0, SVG Export Plug-In . SVG Version: 6.00 Build 0)  -->
<!DOCTYPE svg PUBLIC "-//W3C//DTD SVG 1.1//EN" "http://www.w3.org/Graphics/SVG/1.1/DTD/svg11.dtd">
<svg version="1.1" id="Layer_1" xmlns="http://www.w3.org/2000/svg" xmlns:xlink="http://www.w3.org/1999/xlink" x="0px" y="0px"
	 width="75.288px" height="75.29px" viewBox="0 0 75.288 75.29" enable-background="new 0 0 75.288 75.29" xml:space="preserve">
<g>
	<g>
		<path fill="#E16562" d="M37.4,72.812c-19.808,0-35.922-16.115-35.922-35.923S17.592,0.966,37.4,0.966
			c19.808,0,35.923,16.115,35.923,35.923S57.208,72.812,37.4,72.812z M37.4,69.812"/>
	</g>
</g>
<g>
	<g>
		<path fill="#FFFFFF" d="M33.312,62.028c-11.775,0-21.355-9.58-21.355-21.355s9.58-21.355,21.355-21.355
			c11.775,0,21.355,9.58,21.355,21.355S45.087,62.028,33.312,62.028z M33.312,21.101c-10.792,0-19.572,8.78-19.572,19.572
			s8.78,19.572,19.572,19.572c10.792,0,19.572-8.78,19.572-19.572S44.104,21.101,33.312,21.101z"/>
	</g>
</g>
<path fill="none" stroke="#000000" stroke-width="2" stroke-linecap="round" stroke-miterlimit="10" d="M185.903,119.489
	c0,9.212,14.909,16.667,33.333,16.667"/>
<path fill="none" stroke="#000000" stroke-width="2" stroke-linecap="round" stroke-miterlimit="10" d="M252.57,119.489
	c0,9.212-14.909,16.667-33.333,16.667"/>
<g>
	<rect x="32.045" y="20.697" fill="#FFFFFF" width="2" height="4.065"/>
</g>
<g>
	<rect x="13.211" y="39.673" fill="#FFFFFF" width="4" height="2"/>
</g>
<g>
	<rect x="48.961" y="39.673" fill="#FFFFFF" width="4.002" height="2"/>
</g>
<g>
	<rect x="32.045" y="56.429" fill="#E16562" width="2" height="3.917"/>
</g>
<g>
	<circle fill="#FFFFFF" cx="33.312" cy="40.673" r="2.944"/>
</g>
<g>
	
		<rect x="35.821" y="31.345" transform="matrix(0.7899 0.6132 -0.6132 0.7899 30.0055 -14.9494)" fill="#FFFFFF" width="2" height="9.948"/>
</g>
<g>
	
		<rect x="19.264" y="36.142" transform="matrix(0.8979 0.4402 -0.4402 0.8979 19.0388 -7.7931)" fill="#FFFFFF" width="14.107" height="2"/>
</g>
<g>
	<g>
		<path fill="#FFFFFF" d="M57.771,32.445c0.44,0,0.815,0.154,1.123,0.463c0.308,0.308,0.463,0.683,0.463,1.123
			s-0.163,0.815-0.489,1.122c-0.326,0.308-0.692,0.463-1.097,0.463c-0.405,0-0.771-0.154-1.097-0.463
			c-0.326-0.308-0.488-0.682-0.488-1.122s0.154-0.815,0.462-1.123C56.956,32.599,57.331,32.445,57.771,32.445z M58.881,30.225
			h-2.219V16.749h2.219V30.225z"/>
	</g>
</g>
</svg>
