<?xml version="1.0" encoding="utf-8"?>
<!-- Generator: Adobe Illustrator 17.0.0, SVG Export Plug-In . SVG Version: 6.00 Build 0)  -->
<!DOCTYPE svg PUBLIC "-//W3C//DTD SVG 1.1//EN" "http://www.w3.org/Graphics/SVG/1.1/DTD/svg11.dtd">
<svg version="1.1" id="Layer_1" xmlns="http://www.w3.org/2000/svg" xmlns:xlink="http://www.w3.org/1999/xlink" x="0px" y="0px"
	 width="75.288px" height="75.29px" viewBox="0 0 75.288 75.29" enable-background="new 0 0 75.288 75.29" xml:space="preserve">
<g>
	<path fill="#E16562" d="M37.4,72.812c-19.808,0-35.922-16.115-35.922-35.923S17.592,0.966,37.4,0.966
		c19.808,0,35.923,16.115,35.923,35.923S57.208,72.812,37.4,72.812z M37.4,3.966c-18.153,0-32.922,14.769-32.922,32.923
		S19.247,69.812,37.4,69.812c18.154,0,32.923-14.769,32.923-32.923S55.554,3.966,37.4,3.966z"/>
</g>
<path fill="none" stroke="#000000" stroke-width="2" stroke-linecap="round" stroke-miterlimit="10" d="M185.903,119.489
	c0,9.212,14.909,16.667,33.333,16.667"/>
<path fill="none" stroke="#000000" stroke-width="2" stroke-linecap="round" stroke-miterlimit="10" d="M252.57,119.489
	c0,9.212-14.909,16.667-33.333,16.667"/>
<g>
	<path fill="#E16562" d="M36.275,42.014c-7.445,0-13.501-6.056-13.501-13.501s6.056-13.501,13.501-13.501
		s13.501,6.056,13.501,13.501S43.72,42.014,36.275,42.014z M36.275,16.186c-6.797,0-12.327,5.53-12.327,12.327
		s5.53,12.327,12.327,12.327s12.327-5.53,12.327-12.327S43.072,16.186,36.275,16.186z"/>
</g>
<g>
	
		<rect x="26.185" y="39.627" transform="matrix(0.9613 0.2755 -0.2755 0.9613 15.8169 -5.2992)" fill="#E16562" width="1.174" height="28.049"/>
</g>
<g>
	
		<rect x="31.879" y="53.065" transform="matrix(0.2885 0.9575 -0.9575 0.2885 84.4929 -6.3935)" fill="#E16562" width="29.339" height="1.173"/>
</g>
<g>
	<circle fill="#E16562" cx="28.938" cy="27.535" r="1.174"/>
	<path fill="#E16562" d="M28.938,29.295c-0.971,0-1.761-0.79-1.761-1.761c0-0.971,0.79-1.761,1.761-1.761s1.761,0.79,1.761,1.761
		C30.699,28.506,29.909,29.295,28.938,29.295z M28.938,26.947c-0.324,0-0.587,0.263-0.587,0.587s0.263,0.587,0.587,0.587
		s0.587-0.263,0.587-0.587S29.262,26.947,28.938,26.947z"/>
</g>
<g>
	<circle fill="#E16562" cx="43.491" cy="27.535" r="1.174"/>
	<path fill="#E16562" d="M43.491,29.295c-0.971,0-1.761-0.79-1.761-1.761c0-0.971,0.79-1.761,1.761-1.761
		c0.971,0,1.761,0.79,1.761,1.761C45.252,28.506,44.462,29.295,43.491,29.295z M43.491,26.947c-0.324,0-0.587,0.263-0.587,0.587
		s0.263,0.587,0.587,0.587s0.587-0.263,0.587-0.587S43.815,26.947,43.491,26.947z"/>
</g>
<g>
	<path fill="#E16562" d="M36.276,35.286c-1.641,0-3.029-1.008-3.536-2.569l1.117-0.362c0.421,1.296,1.526,1.758,2.42,1.758
		c0.893,0,1.998-0.462,2.419-1.758l1.117,0.362C39.304,34.277,37.917,35.286,36.276,35.286z"/>
</g>
<g>
	<path fill="#E16562" d="M56.64,25.398c-3.099,0-5.849,1.463-7.642,3.72c0.055,0.437,0.062,0.88,0.017,1.318c0,0,0,0,0,0
		c0.003,0.032,0.011,0.064,0.013,0.096c1.572-2.563,4.391-4.283,7.612-4.283c4.925,0,8.932,4.007,8.932,8.932
		c0,4.925-4.007,8.932-8.932,8.932c-4.925,0-8.932-4.007-8.932-8.932c0-0.212,0.017-0.419,0.032-0.627
		c-0.047,0.052-0.103,0.097-0.153,0.146c-0.124,0.586-0.341,1.147-0.652,1.651c0.581,4.844,4.707,8.612,9.705,8.612
		c5.394,0,9.783-4.388,9.783-9.783S62.034,25.398,56.64,25.398z"/>
</g>
<g>
	<path fill="#E16562" d="M48.349,59.848l4.609-16.104L52.14,43.51l-4.364,15.248C48.014,59.094,48.202,59.462,48.349,59.848z"/>
</g>
<g>
	<path fill="#E16562" d="M65.742,57.428l-4.317-14.331l-0.814,0.245l4.459,14.801C65.265,57.882,65.489,57.643,65.742,57.428z"/>
</g>
<g>
	<circle fill="#E16562" cx="51.323" cy="34.472" r="0.851"/>
	<path fill="#E16562" d="M51.323,35.748c-0.704,0-1.276-0.572-1.276-1.276c0-0.704,0.572-1.276,1.276-1.276
		c0.704,0,1.276,0.572,1.276,1.276C52.599,35.176,52.027,35.748,51.323,35.748z M51.323,34.047c-0.235,0-0.425,0.191-0.425,0.425
		c0,0.235,0.191,0.425,0.425,0.425c0.235,0,0.425-0.191,0.425-0.425C51.748,34.237,51.558,34.047,51.323,34.047z"/>
</g>
<g>
	<circle fill="#E16562" cx="61.868" cy="34.472" r="0.851"/>
	<path fill="#E16562" d="M61.868,35.748c-0.704,0-1.276-0.572-1.276-1.276c0-0.704,0.572-1.276,1.276-1.276
		c0.704,0,1.276,0.572,1.276,1.276C63.144,35.176,62.572,35.748,61.868,35.748z M61.868,34.047c-0.235,0-0.425,0.191-0.425,0.425
		c0,0.235,0.191,0.425,0.425,0.425c0.235,0,0.425-0.191,0.425-0.425C62.293,34.237,62.103,34.047,61.868,34.047z"/>
</g>
<g>
	<path fill="#E16562" d="M56.64,40.089c-1.189,0-2.195-0.731-2.562-1.862l0.809-0.263c0.305,0.939,1.106,1.274,1.753,1.274
		c0.647,0,1.448-0.335,1.753-1.274l0.809,0.263C58.834,39.358,57.829,40.089,56.64,40.089z"/>
</g>
<g>
	<path fill="#E16562" d="M24.474,34.64c0.011,0.18,0.027,0.358,0.027,0.541c0,4.925-4.007,8.932-8.932,8.932
		c-4.925,0-8.932-4.007-8.932-8.932c0-4.925,4.007-8.932,8.932-8.932c3.367,0,6.303,1.874,7.825,4.633
		c0.034-0.417,0.116-0.829,0.24-1.226c-1.765-2.568-4.72-4.257-8.065-4.257c-5.394,0-9.783,4.388-9.783,9.783
		s4.388,9.783,9.783,9.783c5.296,0,9.613-4.233,9.768-9.493C25.007,35.232,24.72,34.951,24.474,34.64z"/>
</g>
<g>
	<path fill="#E16562" d="M8.239,56.49l3.648-12.746l-0.818-0.234L7.457,56.132C7.736,56.23,7.998,56.348,8.239,56.49z"/>
</g>
<g>
	<path fill="#E16562" d="M25.267,59.407l-4.913-16.31l-0.814,0.245l5.264,17.475C24.893,60.326,25.048,59.85,25.267,59.407z"/>
</g>
<g>
	<circle fill="#E16562" cx="10.252" cy="34.472" r="0.851"/>
	<path fill="#E16562" d="M10.252,35.748c-0.704,0-1.276-0.572-1.276-1.276c0-0.704,0.572-1.276,1.276-1.276
		c0.704,0,1.276,0.572,1.276,1.276C11.528,35.176,10.956,35.748,10.252,35.748z M10.252,34.047c-0.235,0-0.425,0.191-0.425,0.425
		c0,0.235,0.191,0.425,0.425,0.425s0.425-0.191,0.425-0.425C10.677,34.237,10.487,34.047,10.252,34.047z"/>
</g>
<g>
	<circle fill="#E16562" cx="20.797" cy="34.472" r="0.851"/>
	<path fill="#E16562" d="M20.797,35.748c-0.704,0-1.276-0.572-1.276-1.276c0-0.704,0.572-1.276,1.276-1.276
		c0.704,0,1.276,0.572,1.276,1.276C22.073,35.176,21.501,35.748,20.797,35.748z M20.797,34.047c-0.235,0-0.425,0.191-0.425,0.425
		c0,0.235,0.191,0.425,0.425,0.425c0.235,0,0.425-0.191,0.425-0.425C21.222,34.237,21.032,34.047,20.797,34.047z"/>
</g>
<g>
	<path fill="#E16562" d="M15.569,40.089c-1.189,0-2.195-0.731-2.562-1.862l0.809-0.263c0.305,0.939,1.106,1.274,1.753,1.274
		c0.647,0,1.448-0.335,1.753-1.274l0.809,0.263C17.764,39.358,16.758,40.089,15.569,40.089z"/>
</g>
</svg>
