<?xml version="1.0" encoding="utf-8"?>
<!-- Generator: Adobe Illustrator 17.0.0, SVG Export Plug-In . SVG Version: 6.00 Build 0)  -->
<!DOCTYPE svg PUBLIC "-//W3C//DTD SVG 1.1//EN" "http://www.w3.org/Graphics/SVG/1.1/DTD/svg11.dtd">
<svg version="1.1" id="Layer_1" xmlns="http://www.w3.org/2000/svg" xmlns:xlink="http://www.w3.org/1999/xlink" x="0px" y="0px"
	 width="75.288px" height="75.29px" viewBox="0 0 75.288 75.29" enable-background="new 0 0 75.288 75.29" xml:space="preserve">
<g>
	<path fill="#E16562" d="M37.4,72.812c-19.808,0-35.922-16.115-35.922-35.923S17.592,0.966,37.4,0.966
		c19.808,0,35.923,16.115,35.923,35.923S57.208,72.812,37.4,72.812z M37.4,3.966c-18.153,0-32.922,14.769-32.922,32.923
		S19.247,69.812,37.4,69.812c18.154,0,32.923-14.769,32.923-32.923S55.554,3.966,37.4,3.966z"/>
</g>
<path fill="none" stroke="#000000" stroke-width="2" stroke-linecap="round" stroke-miterlimit="10" d="M185.903,119.489
	c0,9.212,14.909,16.667,33.333,16.667"/>
<path fill="none" stroke="#000000" stroke-width="2" stroke-linecap="round" stroke-miterlimit="10" d="M252.57,119.489
	c0,9.212-14.909,16.667-33.333,16.667"/>
<path fill="none" stroke="#E16562" stroke-width="2" stroke-miterlimit="10" d="M21.72,59.762l11.674-27.463l3.881-9.131
	L52.83,59.762c0,0-3.3,2.045-6.995,3.212c-3.106,0.981-6.51,1.117-8.283,1.122c-1.804,0.005-5.113-0.099-8.283-1.062
	C25.374,61.851,21.72,59.762,21.72,59.762z"/>
<line fill="none" stroke="#E16562" stroke-width="1.5" stroke-linecap="round" stroke-miterlimit="10" x1="36.544" y1="23.72" x2="27.697" y2="18.5"/>
<line fill="none" stroke="#E16562" stroke-width="1.5" stroke-linecap="round" stroke-miterlimit="10" x1="36.805" y1="23.325" x2="31.443" y2="14.563"/>
<line fill="none" stroke="#E16562" stroke-width="1.5" stroke-linecap="round" stroke-miterlimit="10" x1="37.4" y1="23.995" x2="42.943" y2="15.346"/>
<line fill="none" stroke="#E16562" stroke-width="1.5" stroke-linecap="round" stroke-miterlimit="10" x1="37.644" y1="23.625" x2="46.445" y2="18.5"/>
<line fill="none" stroke="#E16562" stroke-width="1.5" stroke-linecap="round" stroke-miterlimit="10" x1="37.4" y1="23.257" x2="37.4" y2="12.434"/>
<line fill="none" stroke="#E16562" stroke-width="1.5" stroke-linecap="round" stroke-miterlimit="10" x1="37.388" y1="24.564" x2="28.42" y2="22.877"/>
<line fill="none" stroke="#E16562" stroke-width="1.5" stroke-linecap="round" stroke-miterlimit="10" x1="37.35" y1="24.564" x2="45.714" y2="22.652"/>
<path fill="#E16562" d="M33.689,31.604c0,0,2.844,2.06,3.955,2.367c1.018,0.281,4.223,0,4.223,0l2.892,6.803
	c0,0-6.668,0.748-8.714,0c-1.414-0.517-4.602-3.884-4.602-3.884L33.689,31.604z"/>
<path fill="#E16562" d="M27.968,45.063c0,0,5.906,3.833,7.975,4.133C37.84,49.471,47.92,48.21,47.92,48.21l2.375,7.385
	c0,0-13.518,0.984-17.331,0.252c-2.635-0.505-7.544-4.627-7.544-4.627L27.968,45.063z"/>
<polygon fill="none" stroke="#E16562" stroke-linecap="round" stroke-miterlimit="10" points="7.732,39.4 8.732,39.4 8.232,40.908 
	8.232,41.525 7.107,41.525 "/>
<polygon fill="none" stroke="#E16562" stroke-linecap="round" stroke-miterlimit="10" points="16.657,42.57 17.657,42.57 
	17.157,44.078 17.157,44.695 16.032,44.695 "/>
<polygon fill="none" stroke="#E16562" stroke-linecap="round" stroke-miterlimit="10" points="10.17,46.341 11.17,46.341 
	10.67,47.849 10.67,48.466 9.545,48.466 "/>
<polygon fill="none" stroke="#E16562" stroke-linecap="round" stroke-miterlimit="10" points="17.032,56.118 16.032,56.118 
	16.532,57.627 16.532,58.243 17.657,58.243 "/>
<polygon fill="none" stroke="#E16562" stroke-linecap="round" stroke-miterlimit="10" points="21.167,48.466 20.167,48.466 
	20.667,49.974 20.667,50.591 21.792,50.591 "/>
<polygon fill="none" stroke="#E16562" stroke-linecap="round" stroke-miterlimit="10" points="13.42,35.854 14.42,35.854 
	13.92,37.362 13.92,37.979 12.795,37.979 "/>
<polygon fill="none" stroke="#E16562" stroke-linecap="round" stroke-miterlimit="10" points="22.792,34.791 21.792,34.791 
	22.292,36.3 22.292,36.916 23.417,36.916 "/>
<polygon fill="none" stroke="#E16562" stroke-linecap="round" stroke-miterlimit="10" points="18.282,28.837 19.282,28.837 
	18.782,30.345 18.782,30.962 17.657,30.962 "/>
<polygon fill="none" stroke="#E16562" stroke-linecap="round" stroke-miterlimit="10" points="28.232,28.837 29.232,28.837 
	28.732,30.345 28.732,30.962 27.607,30.962 "/>
<polygon fill="none" stroke="#E16562" stroke-linecap="round" stroke-miterlimit="10" points="13.42,21.814 14.42,21.814 
	13.92,23.322 13.92,23.939 12.795,23.939 "/>
<polygon fill="none" stroke="#E16562" stroke-linecap="round" stroke-miterlimit="10" points="17.47,14.284 18.47,14.284 
	17.97,15.792 17.97,16.409 16.845,16.409 "/>
<polygon fill="none" stroke="#E16562" stroke-linecap="round" stroke-miterlimit="10" points="26.857,9.311 27.857,9.311 
	27.357,10.819 27.357,11.436 26.232,11.436 "/>
<polygon fill="none" stroke="#E16562" stroke-linecap="round" stroke-miterlimit="10" points="32.717,6.358 33.717,6.358 
	33.217,7.867 33.217,8.483 32.092,8.483 "/>
<polygon fill="none" stroke="#E16562" stroke-linecap="round" stroke-miterlimit="10" points="9.732,30.541 8.732,30.541 
	9.232,32.05 9.232,32.666 10.357,32.666 "/>
<polygon fill="none" stroke="#E16562" stroke-linecap="round" stroke-miterlimit="10" points="23.982,16.783 22.982,16.783 
	23.482,18.291 23.482,18.908 24.607,18.908 "/>
<polygon fill="none" stroke="#E16562" stroke-linecap="round" stroke-miterlimit="10" points="21.605,22.463 22.605,22.463 
	22.105,23.971 22.105,24.588 20.98,24.588 "/>
<polygon fill="none" stroke="#E16562" stroke-linecap="round" stroke-miterlimit="10" points="14.607,49.528 13.607,49.528 
	14.107,51.036 14.107,51.653 15.232,51.653 "/>
<polygon fill="none" stroke="#E16562" stroke-linecap="round" stroke-miterlimit="10" points="24.42,40.462 25.42,40.462 
	24.92,41.97 24.92,42.587 23.795,42.587 "/>
<polygon fill="none" stroke="#E16562" stroke-linecap="round" stroke-miterlimit="10" points="66.771,39.4 65.771,39.4 
	66.271,40.908 66.271,41.525 67.396,41.525 "/>
<polygon fill="none" stroke="#E16562" stroke-linecap="round" stroke-miterlimit="10" points="57.846,42.57 56.846,42.57 
	57.346,44.078 57.346,44.695 58.471,44.695 "/>
<polygon fill="none" stroke="#E16562" stroke-linecap="round" stroke-miterlimit="10" points="64.334,46.341 63.334,46.341 
	63.834,47.849 63.834,48.466 64.959,48.466 "/>
<polygon fill="none" stroke="#E16562" stroke-linecap="round" stroke-miterlimit="10" points="57.471,56.118 58.471,56.118 
	57.971,57.627 57.971,58.243 56.846,58.243 "/>
<polygon fill="none" stroke="#E16562" stroke-linecap="round" stroke-miterlimit="10" points="53.337,48.466 54.337,48.466 
	53.837,49.974 53.837,50.591 52.712,50.591 "/>
<polygon fill="none" stroke="#E16562" stroke-linecap="round" stroke-miterlimit="10" points="61.084,35.854 60.084,35.854 
	60.584,37.362 60.584,37.979 61.709,37.979 "/>
<polygon fill="none" stroke="#E16562" stroke-linecap="round" stroke-miterlimit="10" points="51.712,34.791 52.712,34.791 
	52.212,36.3 52.212,36.916 51.087,36.916 "/>
<polygon fill="none" stroke="#E16562" stroke-linecap="round" stroke-miterlimit="10" points="56.221,28.837 55.221,28.837 
	55.721,30.345 55.721,30.962 56.846,30.962 "/>
<polygon fill="none" stroke="#E16562" stroke-linecap="round" stroke-miterlimit="10" points="46.271,28.837 45.271,28.837 
	45.771,30.345 45.771,30.962 46.896,30.962 "/>
<polygon fill="none" stroke="#E16562" stroke-linecap="round" stroke-miterlimit="10" points="61.084,21.814 60.084,21.814 
	60.584,23.322 60.584,23.939 61.709,23.939 "/>
<polygon fill="none" stroke="#E16562" stroke-linecap="round" stroke-miterlimit="10" points="57.034,14.284 56.034,14.284 
	56.534,15.792 56.534,16.409 57.659,16.409 "/>
<polygon fill="none" stroke="#E16562" stroke-linecap="round" stroke-miterlimit="10" points="47.646,9.311 46.646,9.311 
	47.146,10.819 47.146,11.436 48.271,11.436 "/>
<polygon fill="none" stroke="#E16562" stroke-linecap="round" stroke-miterlimit="10" points="41.172,6.358 40.172,6.358 
	40.672,7.867 40.672,8.483 41.797,8.483 "/>
<polygon fill="none" stroke="#E16562" stroke-linecap="round" stroke-miterlimit="10" points="64.771,30.541 65.771,30.541 
	65.271,32.05 65.271,32.666 64.146,32.666 "/>
<polygon fill="none" stroke="#E16562" stroke-linecap="round" stroke-miterlimit="10" points="50.521,16.783 51.521,16.783 
	51.021,18.291 51.021,18.908 49.896,18.908 "/>
<polygon fill="none" stroke="#E16562" stroke-linecap="round" stroke-miterlimit="10" points="52.899,22.463 51.899,22.463 
	52.399,23.971 52.399,24.588 53.524,24.588 "/>
<polygon fill="none" stroke="#E16562" stroke-linecap="round" stroke-miterlimit="10" points="59.896,49.528 60.896,49.528 
	60.396,51.036 60.396,51.653 59.271,51.653 "/>
<polygon fill="none" stroke="#E16562" stroke-linecap="round" stroke-miterlimit="10" points="50.084,40.462 49.084,40.462 
	49.584,41.97 49.584,42.587 50.709,42.587 "/>
</svg>
