<?xml version="1.0" encoding="utf-8"?>
<!-- Generator: Adobe Illustrator 17.0.0, SVG Export Plug-In . SVG Version: 6.00 Build 0)  -->
<!DOCTYPE svg PUBLIC "-//W3C//DTD SVG 1.1//EN" "http://www.w3.org/Graphics/SVG/1.1/DTD/svg11.dtd">
<svg version="1.1" id="Layer_1" xmlns="http://www.w3.org/2000/svg" xmlns:xlink="http://www.w3.org/1999/xlink" x="0px" y="0px"
	 width="40.618px" height="40.618px" viewBox="0 0 40.618 40.618" enable-background="new 0 0 40.618 40.618" xml:space="preserve">
<g>
	<path fill="#E16562" d="M20.309,40.164c-10.935,0-19.831-8.896-19.831-19.831S9.374,0.501,20.309,0.501
		c10.935,0,19.831,8.896,19.831,19.831S31.244,40.164,20.309,40.164z M20.309,2.158c-10.022,0-18.175,8.153-18.175,18.175
		s8.153,18.175,18.175,18.175c10.022,0,18.175-8.153,18.175-18.175S30.331,2.158,20.309,2.158z"/>
</g>
<path fill="none" stroke="#000000" stroke-width="2" stroke-linecap="round" stroke-miterlimit="10" d="M168.568,102.153
	c0,9.212,14.909,16.667,33.333,16.667"/>
<path fill="none" stroke="#000000" stroke-width="2" stroke-linecap="round" stroke-miterlimit="10" d="M235.235,102.153
	c0,9.212-14.909,16.667-33.333,16.667"/>
<g>
	<path fill="#E16562" d="M19.21,23.162c-4.11,0-7.453-3.343-7.453-7.453S15.1,8.256,19.21,8.256s7.453,3.343,7.453,7.453
		S23.32,23.162,19.21,23.162z M19.21,8.904c-3.752,0-6.805,3.053-6.805,6.805s3.053,6.805,6.805,6.805s6.805-3.053,6.805-6.805
		S22.963,8.904,19.21,8.904z"/>
</g>
<g>
	
		<rect x="13.64" y="21.844" transform="matrix(0.9613 0.2755 -0.2755 0.9613 8.6914 -2.702)" fill="#E16562" width="0.648" height="15.485"/>
</g>
<g>
	
		<rect x="16.783" y="29.263" transform="matrix(0.2885 0.9575 -0.9575 0.2885 46.0336 -2.7713)" fill="#E16562" width="16.196" height="0.648"/>
</g>
<g>
	<circle fill="#E16562" cx="15.16" cy="15.169" r="0.648"/>
	<path fill="#E16562" d="M15.16,16.141c-0.536,0-0.972-0.436-0.972-0.972c0-0.536,0.436-0.972,0.972-0.972s0.972,0.436,0.972,0.972
		C16.132,15.705,15.696,16.141,15.16,16.141z M15.16,14.844c-0.179,0-0.324,0.145-0.324,0.324c0,0.179,0.145,0.324,0.324,0.324
		s0.324-0.145,0.324-0.324C15.484,14.99,15.338,14.844,15.16,14.844z"/>
</g>
<g>
	<circle fill="#E16562" cx="23.194" cy="15.169" r="0.648"/>
	<path fill="#E16562" d="M23.194,16.141c-0.536,0-0.972-0.436-0.972-0.972c0-0.536,0.436-0.972,0.972-0.972
		c0.536,0,0.972,0.436,0.972,0.972C24.166,15.705,23.73,16.141,23.194,16.141z M23.194,14.844c-0.179,0-0.324,0.145-0.324,0.324
		c0,0.179,0.145,0.324,0.324,0.324s0.324-0.145,0.324-0.324C23.518,14.99,23.372,14.844,23.194,14.844z"/>
</g>
<g>
	<path fill="#E16562" d="M19.211,19.448c-0.906,0-1.672-0.557-1.952-1.418l0.616-0.2c0.232,0.715,0.842,0.97,1.336,0.97
		c0.493,0,1.103-0.255,1.335-0.97l0.616,0.2C20.882,18.891,20.116,19.448,19.211,19.448z"/>
</g>
<g>
	<path fill="#E16562" d="M30.452,13.989c-1.711,0-3.229,0.808-4.219,2.053c0.031,0.241,0.034,0.486,0.009,0.727v0
		c0.002,0.018,0.006,0.035,0.007,0.053c0.868-1.415,2.424-2.364,4.202-2.364c2.719,0,4.931,2.212,4.931,4.931
		c0,2.719-2.212,4.931-4.931,4.931c-2.719,0-4.931-2.212-4.931-4.931c0-0.117,0.01-0.231,0.018-0.346
		c-0.026,0.029-0.057,0.053-0.084,0.081c-0.068,0.323-0.188,0.633-0.36,0.912c0.321,2.674,2.599,4.754,5.358,4.754
		c2.978,0,5.401-2.423,5.401-5.401S33.431,13.989,30.452,13.989z"/>
</g>
<g>
	<path fill="#E16562" d="M25.876,33.008l2.544-8.89l-0.451-0.129l-2.409,8.418C25.69,32.591,25.794,32.794,25.876,33.008z"/>
</g>
<g>
	<path fill="#E16562" d="M35.477,31.671l-2.383-7.912l-0.449,0.135l2.461,8.171C35.214,31.922,35.338,31.79,35.477,31.671z"/>
</g>
<g>
	<circle fill="#E16562" cx="27.517" cy="18.999" r="0.47"/>
	<path fill="#E16562" d="M27.517,19.703c-0.388,0-0.704-0.316-0.704-0.704c0-0.388,0.316-0.704,0.704-0.704s0.704,0.316,0.704,0.704
		C28.222,19.387,27.906,19.703,27.517,19.703z M27.517,18.764c-0.13,0-0.235,0.105-0.235,0.235c0,0.13,0.105,0.235,0.235,0.235
		c0.13,0,0.235-0.105,0.235-0.235C27.752,18.869,27.647,18.764,27.517,18.764z"/>
</g>
<g>
	<circle fill="#E16562" cx="33.339" cy="18.999" r="0.47"/>
	<path fill="#E16562" d="M33.339,19.703c-0.388,0-0.704-0.316-0.704-0.704c0-0.388,0.316-0.704,0.704-0.704s0.704,0.316,0.704,0.704
		C34.043,19.387,33.727,19.703,33.339,19.703z M33.339,18.764c-0.13,0-0.235,0.105-0.235,0.235c0,0.13,0.105,0.235,0.235,0.235
		s0.235-0.105,0.235-0.235C33.574,18.869,33.468,18.764,33.339,18.764z"/>
</g>
<g>
	<path fill="#E16562" d="M30.453,22.099c-0.657,0-1.212-0.403-1.415-1.028l0.447-0.145c0.168,0.518,0.61,0.703,0.968,0.703
		c0.357,0,0.799-0.185,0.968-0.703l0.447,0.145C31.664,21.696,31.109,22.099,30.453,22.099z"/>
</g>
<g>
	<path fill="#E16562" d="M12.695,19.091c0.006,0.099,0.015,0.198,0.015,0.299c0,2.719-2.212,4.931-4.931,4.931
		c-2.719,0-4.931-2.212-4.931-4.931c0-2.719,2.212-4.931,4.931-4.931c1.859,0,3.48,1.035,4.32,2.558
		c0.018-0.23,0.064-0.458,0.133-0.677c-0.974-1.418-2.606-2.35-4.452-2.35c-2.978,0-5.401,2.423-5.401,5.401
		s2.423,5.401,5.401,5.401c2.924,0,5.307-2.337,5.393-5.24C12.99,19.418,12.831,19.263,12.695,19.091z"/>
</g>
<g>
	<path fill="#E16562" d="M3.949,30.4l1.798-6.283l-0.451-0.129L3.59,29.947C3.719,30.091,3.839,30.241,3.949,30.4z"/>
</g>
<g>
	<path fill="#E16562" d="M13.133,32.764l-2.712-9.004l-0.449,0.135l2.906,9.647C12.927,33.271,13.012,33.008,13.133,32.764z"/>
</g>
<g>
	<circle fill="#E16562" cx="4.844" cy="18.999" r="0.47"/>
	<path fill="#E16562" d="M4.844,19.703c-0.388,0-0.704-0.316-0.704-0.704c0-0.388,0.316-0.704,0.704-0.704s0.704,0.316,0.704,0.704
		C5.548,19.387,5.232,19.703,4.844,19.703z M4.844,18.764c-0.13,0-0.235,0.105-0.235,0.235c0,0.13,0.105,0.235,0.235,0.235
		c0.13,0,0.235-0.105,0.235-0.235C5.079,18.869,4.974,18.764,4.844,18.764z"/>
</g>
<g>
	<circle fill="#E16562" cx="10.665" cy="18.999" r="0.47"/>
	<path fill="#E16562" d="M10.665,19.703c-0.388,0-0.704-0.316-0.704-0.704c0-0.388,0.316-0.704,0.704-0.704
		c0.388,0,0.704,0.316,0.704,0.704C11.37,19.387,11.054,19.703,10.665,19.703z M10.665,18.764c-0.13,0-0.235,0.105-0.235,0.235
		c0,0.13,0.105,0.235,0.235,0.235c0.13,0,0.235-0.105,0.235-0.235C10.9,18.869,10.795,18.764,10.665,18.764z"/>
</g>
<g>
	<path fill="#E16562" d="M7.779,22.099c-0.657,0-1.212-0.403-1.415-1.028l0.447-0.145c0.168,0.518,0.61,0.703,0.968,0.703
		c0.357,0,0.799-0.185,0.968-0.703l0.447,0.145C8.991,21.696,8.436,22.099,7.779,22.099z"/>
</g>
</svg>
