<?xml version="1.0" encoding="utf-8"?>
<!-- Generator: Adobe Illustrator 17.0.0, SVG Export Plug-In . SVG Version: 6.00 Build 0)  -->
<!DOCTYPE svg PUBLIC "-//W3C//DTD SVG 1.1//EN" "http://www.w3.org/Graphics/SVG/1.1/DTD/svg11.dtd">
<svg version="1.1" id="Layer_1" xmlns="http://www.w3.org/2000/svg" xmlns:xlink="http://www.w3.org/1999/xlink" x="0px" y="0px"
	 width="40.618px" height="40.618px" viewBox="0 0 40.618 40.618" enable-background="new 0 0 40.618 40.618" xml:space="preserve">
<g>
	<g>
		<path fill="#E16562" d="M20.247,39.827c-10.826,0-19.634-8.808-19.634-19.634S9.421,0.559,20.247,0.559
			c10.826,0,19.634,8.808,19.634,19.634S31.074,39.827,20.247,39.827z M20.247,2.198c-9.922,0-17.994,8.072-17.994,17.994
			s8.072,17.994,17.994,17.994c9.922,0,17.994-8.072,17.994-17.994S30.17,2.198,20.247,2.198z"/>
	</g>
</g>
<g>
	<g>
		<path fill="#E16562" d="M18.013,33.933c-6.436,0-11.672-5.236-11.672-11.672s5.236-11.672,11.672-11.672
			c6.436,0,11.672,5.236,11.672,11.672S24.449,33.933,18.013,33.933z M18.013,11.564c-5.898,0-10.697,4.799-10.697,10.697
			s4.799,10.697,10.697,10.697c5.899,0,10.697-4.799,10.697-10.697S23.911,11.564,18.013,11.564z"/>
	</g>
</g>
<path fill="none" stroke="#000000" stroke-width="2" stroke-linecap="round" stroke-miterlimit="10" d="M168.568,102.153
	c0,9.212,14.909,16.667,33.333,16.667"/>
<path fill="none" stroke="#000000" stroke-width="2" stroke-linecap="round" stroke-miterlimit="10" d="M235.235,102.153
	c0,9.212-14.909,16.667-33.333,16.667"/>
<g>
	<rect x="17.32" y="11.342" fill="#E16562" width="1.093" height="2.222"/>
</g>
<g>
	<rect x="7.027" y="21.714" fill="#E16562" width="2.187" height="1.093"/>
</g>
<g>
	<rect x="26.566" y="21.714" fill="#E16562" width="2.187" height="1.093"/>
</g>
<g>
	<rect x="17.32" y="30.873" fill="#E16562" width="1.093" height="2.141"/>
</g>
<g>
	<circle fill="#E16562" cx="18.013" cy="22.261" r="1.609"/>
</g>
<g>
	
		<rect x="19.385" y="17.162" transform="matrix(0.7899 0.6132 -0.6132 0.7899 16.3779 -8.0454)" fill="#E16562" width="1.093" height="5.437"/>
</g>
<g>
	
		<rect x="10.335" y="19.784" transform="matrix(0.8979 0.4402 -0.4402 0.8979 10.3995 -4.1709)" fill="#E16562" width="7.71" height="1.093"/>
</g>
<g>
	<g>
		<path fill="#E16562" d="M31.381,17.764c0.24,0,0.445,0.084,0.614,0.253c0.168,0.169,0.253,0.373,0.253,0.614
			s-0.089,0.445-0.267,0.613c-0.178,0.169-0.378,0.253-0.599,0.253c-0.222,0-0.421-0.084-0.599-0.253
			c-0.178-0.168-0.267-0.373-0.267-0.613s0.084-0.445,0.253-0.614S31.141,17.764,31.381,17.764z M31.988,16.55h-1.213V9.185h1.213
			V16.55z"/>
	</g>
</g>
</svg>
