<?xml version="1.0" encoding="utf-8"?>
<!-- Generator: Adobe Illustrator 17.0.0, SVG Export Plug-In . SVG Version: 6.00 Build 0)  -->
<!DOCTYPE svg PUBLIC "-//W3C//DTD SVG 1.1//EN" "http://www.w3.org/Graphics/SVG/1.1/DTD/svg11.dtd">
<svg version="1.1" id="Layer_1" xmlns="http://www.w3.org/2000/svg" xmlns:xlink="http://www.w3.org/1999/xlink" x="0px" y="0px"
	 width="40.618px" height="40.618px" viewBox="0 0 40.618 40.618" enable-background="new 0 0 40.618 40.618" xml:space="preserve">
<g>
	<path fill="#E16562" d="M20.307,40.269c-10.998,0-19.945-8.947-19.945-19.945S9.309,0.379,20.307,0.379
		c10.998,0,19.945,8.947,19.945,19.945S31.305,40.269,20.307,40.269z M20.307,2.045c-10.079,0-18.279,8.2-18.279,18.28
		s8.2,18.28,18.279,18.28c10.079,0,18.28-8.2,18.28-18.28S30.386,2.045,20.307,2.045z"/>
</g>
<path fill="none" stroke="#000000" stroke-width="2" stroke-linecap="round" stroke-miterlimit="10" d="M168.568,102.153
	c0,9.212,14.909,16.667,33.333,16.667"/>
<path fill="none" stroke="#000000" stroke-width="2" stroke-linecap="round" stroke-miterlimit="10" d="M235.235,102.153
	c0,9.212-14.909,16.667-33.333,16.667"/>
<path fill="none" stroke="#E16562" stroke-width="2" stroke-miterlimit="10" d="M12.077,33.009l6.482-15.248l2.155-5.07
	l8.637,20.318c0,0-1.832,1.135-3.884,1.783c-1.724,0.545-3.614,0.62-4.599,0.623c-1.002,0.003-2.839-0.055-4.599-0.589
	C14.106,34.168,12.077,33.009,12.077,33.009z"/>
<line fill="none" stroke="#E16562" stroke-width="1.5" stroke-linecap="round" stroke-miterlimit="10" x1="20.307" y1="12.998" x2="15.395" y2="10.099"/>
<line fill="none" stroke="#E16562" stroke-width="1.5" stroke-linecap="round" stroke-miterlimit="10" x1="20.452" y1="12.778" x2="17.475" y2="7.913"/>
<line fill="none" stroke="#E16562" stroke-width="1.5" stroke-linecap="round" stroke-miterlimit="10" x1="20.783" y1="13.15" x2="23.86" y2="8.348"/>
<line fill="none" stroke="#E16562" stroke-width="1.5" stroke-linecap="round" stroke-miterlimit="10" x1="20.918" y1="12.944" x2="25.805" y2="10.099"/>
<line fill="none" stroke="#E16562" stroke-width="1.5" stroke-linecap="round" stroke-miterlimit="10" x1="20.783" y1="12.74" x2="20.783" y2="6.731"/>
<line fill="none" stroke="#E16562" stroke-width="1.5" stroke-linecap="round" stroke-miterlimit="10" x1="20.776" y1="13.466" x2="15.797" y2="12.529"/>
<line fill="none" stroke="#E16562" stroke-width="1.5" stroke-linecap="round" stroke-miterlimit="10" x1="20.755" y1="13.466" x2="25.399" y2="12.404"/>
<path fill="#E16562" d="M18.723,17.375c0,0,1.579,1.144,2.196,1.314c0.565,0.156,2.345,0,2.345,0l1.606,3.777
	c0,0-3.702,0.415-4.838,0c-0.785-0.287-2.555-2.157-2.555-2.157L18.723,17.375z"/>
<path fill="#E16562" d="M15.546,24.847c0,0,3.279,2.128,4.428,2.295c1.053,0.153,6.649-0.547,6.649-0.547l1.319,4.1
	c0,0-7.506,0.546-9.623,0.14c-1.463-0.281-4.188-2.569-4.188-2.569L15.546,24.847z"/>
<polygon fill="none" stroke="#E16562" stroke-linecap="round" stroke-miterlimit="10" points="4.311,21.703 4.866,21.703 
	4.588,22.54 4.588,22.883 3.964,22.883 "/>
<polygon fill="none" stroke="#E16562" stroke-linecap="round" stroke-miterlimit="10" points="9.266,23.463 9.821,23.463 
	9.544,24.301 9.544,24.643 8.919,24.643 "/>
<polygon fill="none" stroke="#E16562" stroke-linecap="round" stroke-miterlimit="10" points="5.664,25.557 6.219,25.557 
	5.942,26.394 5.942,26.737 5.317,26.737 "/>
<polygon fill="none" stroke="#E16562" stroke-linecap="round" stroke-miterlimit="10" points="9.474,30.986 8.919,30.986 
	9.196,31.823 9.196,32.165 9.821,32.165 "/>
<polygon fill="none" stroke="#E16562" stroke-linecap="round" stroke-miterlimit="10" points="11.77,26.737 11.215,26.737 
	11.492,27.574 11.492,27.916 12.117,27.916 "/>
<polygon fill="none" stroke="#E16562" stroke-linecap="round" stroke-miterlimit="10" points="7.468,19.734 8.024,19.734 
	7.746,20.572 7.746,20.914 7.121,20.914 "/>
<polygon fill="none" stroke="#E16562" stroke-linecap="round" stroke-miterlimit="10" points="12.672,19.144 12.117,19.144 
	12.394,19.982 12.394,20.324 13.019,20.324 "/>
<polygon fill="none" stroke="#E16562" stroke-linecap="round" stroke-miterlimit="10" points="10.168,15.838 10.723,15.838 
	10.446,16.676 10.446,17.018 9.821,17.018 "/>
<polygon fill="none" stroke="#E16562" stroke-linecap="round" stroke-miterlimit="10" points="15.693,15.838 16.248,15.838 
	15.97,16.676 15.97,17.018 15.346,17.018 "/>
<polygon fill="none" stroke="#E16562" stroke-linecap="round" stroke-miterlimit="10" points="7.468,11.939 8.024,11.939 
	7.746,12.777 7.746,13.119 7.121,13.119 "/>
<polygon fill="none" stroke="#E16562" stroke-linecap="round" stroke-miterlimit="10" points="9.717,7.758 10.272,7.758 
	9.995,8.596 9.995,8.938 9.37,8.938 "/>
<polygon fill="none" stroke="#E16562" stroke-linecap="round" stroke-miterlimit="10" points="14.929,4.997 15.484,4.997 
	15.207,5.835 15.207,6.177 14.582,6.177 "/>
<polygon fill="none" stroke="#E16562" stroke-linecap="round" stroke-miterlimit="10" points="18.182,3.358 18.738,3.358 
	18.46,4.195 18.46,4.538 17.835,4.538 "/>
<polygon fill="none" stroke="#E16562" stroke-linecap="round" stroke-miterlimit="10" points="5.421,16.785 4.866,16.785 
	5.143,17.622 5.143,17.964 5.768,17.964 "/>
<polygon fill="none" stroke="#E16562" stroke-linecap="round" stroke-miterlimit="10" points="13.333,9.146 12.778,9.146 
	13.055,9.983 13.055,10.326 13.68,10.326 "/>
<polygon fill="none" stroke="#E16562" stroke-linecap="round" stroke-miterlimit="10" points="12.013,12.299 12.568,12.299 
	12.29,13.137 12.29,13.479 11.666,13.479 "/>
<polygon fill="none" stroke="#E16562" stroke-linecap="round" stroke-miterlimit="10" points="8.128,27.327 7.573,27.327 
	7.85,28.164 7.85,28.506 8.475,28.506 "/>
<polygon fill="none" stroke="#E16562" stroke-linecap="round" stroke-miterlimit="10" points="13.576,22.293 14.131,22.293 
	13.853,23.13 13.853,23.473 13.229,23.473 "/>
<polygon fill="none" stroke="#E16562" stroke-linecap="round" stroke-miterlimit="10" points="37.09,21.703 36.535,21.703 
	36.813,22.54 36.813,22.883 37.437,22.883 "/>
<polygon fill="none" stroke="#E16562" stroke-linecap="round" stroke-miterlimit="10" points="32.135,23.463 31.58,23.463 
	31.857,24.301 31.857,24.643 32.482,24.643 "/>
<polygon fill="none" stroke="#E16562" stroke-linecap="round" stroke-miterlimit="10" points="35.737,25.557 35.182,25.557 
	35.459,26.394 35.459,26.737 36.084,26.737 "/>
<polygon fill="none" stroke="#E16562" stroke-linecap="round" stroke-miterlimit="10" points="31.927,30.986 32.482,30.986 
	32.204,31.823 32.204,32.165 31.58,32.165 "/>
<polygon fill="none" stroke="#E16562" stroke-linecap="round" stroke-miterlimit="10" points="29.631,26.737 30.186,26.737 
	29.909,27.574 29.909,27.916 29.284,27.916 "/>
<polygon fill="none" stroke="#E16562" stroke-linecap="round" stroke-miterlimit="10" points="33.932,19.734 33.377,19.734 
	33.655,20.572 33.655,20.914 34.279,20.914 "/>
<polygon fill="none" stroke="#E16562" stroke-linecap="round" stroke-miterlimit="10" points="28.729,19.144 29.284,19.144 
	29.006,19.982 29.006,20.324 28.382,20.324 "/>
<polygon fill="none" stroke="#E16562" stroke-linecap="round" stroke-miterlimit="10" points="31.233,15.838 30.678,15.838 
	30.955,16.676 30.955,17.018 31.58,17.018 "/>
<polygon fill="none" stroke="#E16562" stroke-linecap="round" stroke-miterlimit="10" points="25.708,15.838 25.153,15.838 
	25.431,16.676 25.431,17.018 26.055,17.018 "/>
<polygon fill="none" stroke="#E16562" stroke-linecap="round" stroke-miterlimit="10" points="33.932,11.939 33.377,11.939 
	33.655,12.777 33.655,13.119 34.279,13.119 "/>
<polygon fill="none" stroke="#E16562" stroke-linecap="round" stroke-miterlimit="10" points="31.684,7.758 31.129,7.758 
	31.406,8.596 31.406,8.938 32.031,8.938 "/>
<polygon fill="none" stroke="#E16562" stroke-linecap="round" stroke-miterlimit="10" points="26.472,4.997 25.916,4.997 
	26.194,5.835 26.194,6.177 26.819,6.177 "/>
<polygon fill="none" stroke="#E16562" stroke-linecap="round" stroke-miterlimit="10" points="22.877,3.358 22.322,3.358 
	22.599,4.195 22.599,4.538 23.224,4.538 "/>
<polygon fill="none" stroke="#E16562" stroke-linecap="round" stroke-miterlimit="10" points="35.98,16.785 36.535,16.785 
	36.257,17.622 36.257,17.964 35.633,17.964 "/>
<polygon fill="none" stroke="#E16562" stroke-linecap="round" stroke-miterlimit="10" points="28.068,9.146 28.623,9.146 
	28.346,9.983 28.346,10.326 27.721,10.326 "/>
<polygon fill="none" stroke="#E16562" stroke-linecap="round" stroke-miterlimit="10" points="29.388,12.299 28.833,12.299 
	29.111,13.137 29.111,13.479 29.735,13.479 "/>
<polygon fill="none" stroke="#E16562" stroke-linecap="round" stroke-miterlimit="10" points="33.273,27.327 33.828,27.327 
	33.551,28.164 33.551,28.506 32.926,28.506 "/>
<polygon fill="none" stroke="#E16562" stroke-linecap="round" stroke-miterlimit="10" points="27.825,22.293 27.27,22.293 
	27.547,23.13 27.547,23.473 28.172,23.473 "/>
</svg>
