<?xml version="1.0" encoding="utf-8"?>
<!-- Generator: Adobe Illustrator 17.0.0, SVG Export Plug-In . SVG Version: 6.00 Build 0)  -->
<!DOCTYPE svg PUBLIC "-//W3C//DTD SVG 1.1//EN" "http://www.w3.org/Graphics/SVG/1.1/DTD/svg11.dtd">
<svg version="1.1" id="Layer_1" xmlns="http://www.w3.org/2000/svg" xmlns:xlink="http://www.w3.org/1999/xlink" x="0px" y="0px"
	 width="40.618px" height="40.618px" viewBox="0 0 40.618 40.618" enable-background="new 0 0 40.618 40.618" xml:space="preserve">
<g>
	<path fill="#E16562" d="M20.309,39.815c-10.87,0-19.714-8.844-19.714-19.714S9.438,0.386,20.309,0.386
		c10.871,0,19.714,8.844,19.714,19.714S31.18,39.815,20.309,39.815z M20.309,2.033c-9.963,0-18.068,8.105-18.068,18.068
		s8.105,18.068,18.068,18.068c9.963,0,18.068-8.105,18.068-18.068S30.272,2.033,20.309,2.033z"/>
</g>
<path fill="none" stroke="#000000" stroke-width="2" stroke-linecap="round" stroke-miterlimit="10" d="M168.568,102.153
	c0,9.212,14.909,16.667,33.333,16.667"/>
<path fill="none" stroke="#000000" stroke-width="2" stroke-linecap="round" stroke-miterlimit="10" d="M235.235,102.153
	c0,9.212-14.909,16.667-33.333,16.667"/>
<g>
	<path fill="#E16562" d="M20.348,14.493c0.507-1.638,1.224-2.87,2.151-3.695c0.927-0.824,2.063-1.237,3.409-1.237
		c1.456,0,2.689,0.47,3.699,1.408c1.009,0.939,1.514,2.081,1.514,3.426c0,0.901-0.293,1.969-0.877,3.206
		c-0.585,1.237-1.434,2.572-2.548,4.004l-0.794,1.025c-3.773,4.839-5.957,8.442-6.553,10.807c-0.651-2.409-2.852-6.022-6.603-10.84
		c-0.331-0.423-0.585-0.743-0.761-0.96c-1.114-1.432-1.964-2.767-2.548-4.004c-0.585-1.237-0.877-2.317-0.877-3.239
		c0-1.345,0.505-2.487,1.514-3.426c1.009-0.938,2.247-1.408,3.715-1.408c1.335,0,2.463,0.41,3.384,1.229
		C19.093,11.61,19.819,12.844,20.348,14.493z"/>
</g>
</svg>
