<?xml version="1.0" encoding="utf-8"?>
<!-- Generator: Adobe Illustrator 17.0.0, SVG Export Plug-In . SVG Version: 6.00 Build 0)  -->
<!DOCTYPE svg PUBLIC "-//W3C//DTD SVG 1.1//EN" "http://www.w3.org/Graphics/SVG/1.1/DTD/svg11.dtd">
<svg version="1.1" id="Layer_1" xmlns="http://www.w3.org/2000/svg" xmlns:xlink="http://www.w3.org/1999/xlink" x="0px" y="0px"
	 width="40.618px" height="40.618px" viewBox="0 0 40.618 40.618" enable-background="new 0 0 40.618 40.618" xml:space="preserve">
<g>
	<path fill="#E16562" d="M20.309,39.994c-10.854,0-19.684-8.83-19.684-19.685S9.455,0.624,20.309,0.624
		c10.854,0,19.685,8.83,19.685,19.685S31.163,39.994,20.309,39.994z M20.309,2.268c-9.947,0-18.041,8.093-18.041,18.041
		S10.361,38.35,20.309,38.35c9.948,0,18.041-8.093,18.041-18.041S30.257,2.268,20.309,2.268z"/>
</g>
<path fill="none" stroke="#000000" stroke-width="2" stroke-linecap="round" stroke-miterlimit="10" d="M168.568,102.153
	c0,9.212,14.909,16.667,33.333,16.667"/>
<path fill="none" stroke="#000000" stroke-width="2" stroke-linecap="round" stroke-miterlimit="10" d="M235.235,102.153
	c0,9.212-14.909,16.667-33.333,16.667"/>
<g>
	<path fill="#E16562" d="M14.82,29.357c-1.194,0-2.327-0.199-3.397-0.597c-1.071-0.398-1.967-1.08-2.687-2.047l1.99-1.734
		c0.416,0.644,0.999,1.156,1.748,1.535c0.748,0.379,1.53,0.588,2.345,0.625v-7.221c-0.739-0.189-1.45-0.441-2.132-0.753
		c-0.683-0.313-1.284-0.696-1.805-1.151c-0.521-0.455-0.934-0.999-1.237-1.635c-0.303-0.635-0.455-1.379-0.455-2.232
		c0-0.796,0.152-1.525,0.455-2.189c0.303-0.663,0.715-1.237,1.237-1.72c0.521-0.484,1.123-0.872,1.805-1.166
		c0.682-0.294,1.393-0.469,2.132-0.526V6.67h1.365v1.876c1.024,0,2.033,0.19,3.028,0.568c0.995,0.379,1.824,0.957,2.488,1.734
		l-1.877,1.706c-0.436-0.568-0.966-1.009-1.592-1.322c-0.625-0.313-1.308-0.469-2.047-0.469v7.079
		c0.758,0.246,1.497,0.512,2.218,0.796c0.72,0.285,1.36,0.64,1.919,1.066c0.559,0.426,1.004,0.952,1.336,1.578
		c0.331,0.625,0.497,1.403,0.497,2.331c0,0.853-0.161,1.62-0.483,2.303c-0.323,0.682-0.753,1.27-1.294,1.763
		c-0.54,0.493-1.17,0.881-1.891,1.166c-0.72,0.284-1.488,0.455-2.303,0.512v2.018H14.82V29.357z M14.82,10.764
		c-0.929,0.17-1.673,0.554-2.231,1.151c-0.56,0.597-0.839,1.35-0.839,2.26c0,0.493,0.08,0.91,0.241,1.251
		c0.161,0.341,0.379,0.635,0.654,0.881c0.275,0.246,0.597,0.46,0.967,0.639c0.369,0.18,0.772,0.356,1.208,0.526V10.764z
		 M16.185,27.139c0.967-0.114,1.777-0.483,2.431-1.109c0.654-0.625,0.981-1.393,0.981-2.303c0-0.512-0.095-0.957-0.285-1.337
		c-0.19-0.379-0.445-0.701-0.767-0.966c-0.323-0.265-0.687-0.488-1.095-0.668c-0.408-0.18-0.829-0.336-1.265-0.469V27.139z"/>
</g>
<g>
	<path fill="#E16562" d="M29.672,29.434c0,0.477-0.171,0.903-0.511,1.278c-0.341,0.375-0.784,0.562-1.329,0.562
		c-0.545,0-0.988-0.187-1.329-0.562s-0.511-0.801-0.511-1.278c0-0.477,0.171-0.903,0.511-1.278c0.341-0.375,0.784-0.562,1.329-0.562
		c0.545,0,0.988,0.187,1.329,0.562C29.502,28.531,29.672,28.957,29.672,29.434z M29.058,24.528h-2.453V6.947h2.453V24.528z"/>
</g>
</svg>
